<svg xmlns="http://www.w3.org/2000/svg" width="13.341" height="14.823" viewBox="0 0 13.341 14.823">
  <path id="ic_assignment_turned_in_24px" d="M14.859,2.482h-3.1a2.215,2.215,0,0,0-4.18,0h-3.1A1.487,1.487,0,0,0,3,3.965V14.341a1.487,1.487,0,0,0,1.482,1.482H14.859a1.487,1.487,0,0,0,1.482-1.482V3.965A1.487,1.487,0,0,0,14.859,2.482Zm-5.188,0a.741.741,0,1,1-.741.741A.743.743,0,0,1,9.671,2.482ZM8.188,12.859,5.224,9.894,6.269,8.849l1.92,1.912,4.884-4.884,1.045,1.052Z" transform="translate(-3 -1)" fill="#30a64a"/>
</svg>
