<svg xmlns="http://www.w3.org/2000/svg" width="14.107" height="14.107" viewBox="0 0 14.107 14.107">
  <path id="ic_local_grocery_store_24px" d="M5.232,13.285A1.411,1.411,0,1,0,6.643,14.7,1.409,1.409,0,0,0,5.232,13.285ZM1,2V3.411H2.411L4.95,8.764,4,10.492a1.364,1.364,0,0,0-.176.677A1.415,1.415,0,0,0,5.232,12.58H13.7V11.169H5.528a.175.175,0,0,1-.176-.176l.021-.085.635-1.15h5.255A1.4,1.4,0,0,0,12.5,9.032l2.525-4.578a.689.689,0,0,0,.085-.339.707.707,0,0,0-.705-.705H3.969L3.306,2H1ZM12.285,13.285A1.411,1.411,0,1,0,13.7,14.7,1.409,1.409,0,0,0,12.285,13.285Z" transform="translate(-1 -2)" fill="#30a64a"/>
</svg>
