<svg xmlns="http://www.w3.org/2000/svg" width="498" height="374" viewBox="0 0 498 374">
  <g id="Group_396" data-name="Group 396" transform="translate(-111 -299)">
    <rect id="Rectangle_802" data-name="Rectangle 802" width="498" height="374" transform="translate(111 299)" fill="#e2e7e8"/>
    <g id="Group_378" data-name="Group 378" transform="translate(0 -22.807)">
      <path id="ic_add_a_photo_24px" d="M7.539,8.539V1h5.026V8.539H20.1v5.026H12.565V21.1H7.539V13.565H0V8.539Zm7.539,15.078V16.078h7.539V8.539H40.209l4.6,5.026h7.966A5.041,5.041,0,0,1,57.8,18.591V48.748a5.041,5.041,0,0,1-5.026,5.026H12.565a5.041,5.041,0,0,1-5.026-5.026V23.617ZM32.67,46.235A12.565,12.565,0,1,0,20.1,33.67,12.57,12.57,0,0,0,32.67,46.235ZM24.628,33.67a8.042,8.042,0,1,0,8.042-8.042,8.033,8.033,0,0,0-8.042,8.042Z" transform="translate(331 464.807)" fill="#b2b2b2"/>
      <text id="新增圖片" transform="translate(360 541)" fill="#838383" font-size="15" font-family="SourceHanSansTW-Regular, Source Han Sans TW" letter-spacing="0.1em"><tspan x="-32.25" y="0">新增圖片</tspan></text>
    </g>
  </g>
</svg>
