<svg xmlns="http://www.w3.org/2000/svg" xmlns:xlink="http://www.w3.org/1999/xlink" width="37.108" height="41.287" viewBox="0 0 37.108 41.287">
  <defs>
    <linearGradient id="linear-gradient" y1="0.5" x2="1" y2="0.5" gradientUnits="objectBoundingBox">
      <stop offset="0" stop-color="#1eaa39"/>
      <stop offset="0.275" stop-color="#1aa436"/>
      <stop offset="0.638" stop-color="#11932f"/>
      <stop offset="1" stop-color="#057c25"/>
    </linearGradient>
    <linearGradient id="linear-gradient-2" y1="0.5" x2="1" y2="0.5" gradientUnits="objectBoundingBox">
      <stop offset="0" stop-color="#199b33"/>
      <stop offset="1" stop-color="#006e1d"/>
    </linearGradient>
    <linearGradient id="linear-gradient-3" y1="0.5" x2="1" y2="0.5" gradientUnits="objectBoundingBox">
      <stop offset="0" stop-color="#199b33"/>
      <stop offset="0.352" stop-color="#159530"/>
      <stop offset="0.815" stop-color="#0a8428"/>
      <stop offset="1" stop-color="#057c25"/>
    </linearGradient>
    <linearGradient id="linear-gradient-4" y1="0.5" x2="1" y2="0.5" gradientUnits="objectBoundingBox">
      <stop offset="0" stop-color="#169530"/>
      <stop offset="1" stop-color="#006e1d"/>
    </linearGradient>
    <linearGradient id="linear-gradient-7" x1="0.5" y1="1" x2="0.5" y2="0" xlink:href="#linear-gradient-4"/>
    <radialGradient id="radial-gradient" cx="364.51" cy="-315.627" r="0.749" gradientTransform="matrix(0.897, -0.443, 0.443, 0.897, 200.976, 4.562)" gradientUnits="userSpaceOnUse">
      <stop offset="0" stop-color="#e50020"/>
      <stop offset="0.489" stop-color="#e3001f"/>
      <stop offset="0.665" stop-color="#dc001d"/>
      <stop offset="0.79" stop-color="#d0001a"/>
      <stop offset="0.892" stop-color="#bf0015"/>
      <stop offset="0.978" stop-color="#a9000e"/>
      <stop offset="1" stop-color="#a3000d"/>
    </radialGradient>
    <linearGradient id="linear-gradient-8" x1="124.561" y1="-162.688" x2="124.565" y2="-163.533" gradientUnits="objectBoundingBox">
      <stop offset="0" stop-color="#e50020"/>
      <stop offset="0.157" stop-color="#e8223e"/>
      <stop offset="0.506" stop-color="#f17a8a"/>
      <stop offset="1" stop-color="#fff"/>
    </linearGradient>
    <radialGradient id="radial-gradient-2" cx="371.004" cy="-47.812" r="0.749" gradientTransform="matrix(0.975, -0.222, 0.222, 0.975, 49.118, 18.946)" xlink:href="#radial-gradient"/>
    <linearGradient id="linear-gradient-9" x1="57.302" y1="-101.92" x2="57.306" y2="-102.869" xlink:href="#linear-gradient-8"/>
    <radialGradient id="radial-gradient-3" cx="-102.175" cy="422.073" r="0.96" gradientTransform="matrix(0.945, 0.328, -0.328, 0.945, 47.519, 107.649)" xlink:href="#radial-gradient"/>
    <linearGradient id="linear-gradient-10" x1="-52.587" y1="115.808" x2="-52.582" y2="115.023" xlink:href="#linear-gradient-8"/>
    <radialGradient id="radial-gradient-4" cx="242.474" cy="215.901" r="1.183" gradientTransform="matrix(1, 0, 0, 1, 0, 0)" xlink:href="#radial-gradient"/>
    <linearGradient id="linear-gradient-11" x1="-0.586" y1="1.579" x2="-0.582" y2="0.589" xlink:href="#linear-gradient-8"/>
    <radialGradient id="radial-gradient-5" cx="432.119" cy="-121.799" r="1.548" gradientTransform="matrix(0.948, -0.319, 0.319, 0.948, 110.801, 45.148)" xlink:href="#radial-gradient"/>
    <linearGradient id="linear-gradient-12" x1="48.016" y1="-55.419" x2="48.02" y2="-56.321" xlink:href="#linear-gradient-8"/>
    <radialGradient id="radial-gradient-6" cx="-203.074" cy="439.962" r="1.136" gradientTransform="matrix(0.933, 0.36, -0.36, 0.933, 39.222, 147.374)" xlink:href="#radial-gradient"/>
    <linearGradient id="linear-gradient-13" x1="-68.026" y1="101.253" x2="-68.022" y2="100.484" xlink:href="#linear-gradient-8"/>
    <radialGradient id="radial-gradient-7" cx="503.132" cy="-243.581" r="1.49" gradientTransform="matrix(0.911, -0.412, 0.412, 0.911, 207.199, 62.644)" xlink:href="#radial-gradient"/>
    <linearGradient id="linear-gradient-14" x1="77.816" y1="-70.229" x2="77.82" y2="-71.088" xlink:href="#linear-gradient-8"/>
    <radialGradient id="radial-gradient-8" cx="483.166" cy="-274.146" r="0.984" gradientTransform="matrix(0.912, -0.411, 0.411, 0.912, 206.125, 44.561)" xlink:href="#radial-gradient"/>
    <linearGradient id="linear-gradient-15" x1="118.615" y1="-119.634" x2="118.619" y2="-120.493" xlink:href="#linear-gradient-8"/>
    <radialGradient id="radial-gradient-9" cx="-49.506" cy="433.891" r="0.985" gradientTransform="matrix(0.96, 0.278, -0.278, 0.96, 42.271, 81.205)" xlink:href="#radial-gradient"/>
    <linearGradient id="linear-gradient-16" x1="-50.978" y1="107.021" x2="-50.974" y2="106.211" xlink:href="#linear-gradient-8"/>
    <linearGradient id="linear-gradient-17" y1="0.5" x2="1" y2="0.5" gradientUnits="objectBoundingBox">
      <stop offset="0" stop-color="#f2e200"/>
      <stop offset="0.66" stop-color="#e5b90b"/>
      <stop offset="1" stop-color="#dfa312"/>
    </linearGradient>
    <linearGradient id="linear-gradient-18" x1="0.5" y1="1" x2="0.5" gradientUnits="objectBoundingBox">
      <stop offset="0" stop-color="#fff000"/>
      <stop offset="0.062" stop-color="#fff000"/>
      <stop offset="1" stop-color="#fff000"/>
    </linearGradient>
    <radialGradient id="radial-gradient-10" cx="190.726" cy="140.715" r="1.992" gradientTransform="translate(-1.981 -1.505) scale(0.951 0.951)" gradientUnits="userSpaceOnUse">
      <stop offset="0" stop-color="#fffbda"/>
      <stop offset="0.127" stop-color="#ffface"/>
      <stop offset="0.352" stop-color="#fff8b1"/>
      <stop offset="0.647" stop-color="#fff581"/>
      <stop offset="0.998" stop-color="#fff23f"/>
      <stop offset="1" stop-color="#fff23f"/>
    </radialGradient>
  </defs>
  <g id="Group_383" data-name="Group 383" transform="translate(-196.942 -171.405)">
    <g id="Group_371" data-name="Group 371" transform="translate(212.87 201.479)">
      <path id="Path_557" data-name="Path 557" d="M234.087,251.845c.013-1.618.533-4.2.584-8.511.03-2.557,4.239-2.266,4.389.151.262,4.236.581,7.122.756,8.36C238.964,253,235.112,253.113,234.087,251.845Z" transform="translate(-234.087 -241.541)" fill="#803921"/>
    </g>
    <path id="Path_558" data-name="Path 558" d="M239.462,254.844a3.83,3.83,0,0,1-2.28-.3c-.107,1-1.209,1.93-2.737,2.181-.046.452-.091.864-.127,1.242.148,0,.3,0,.47,0,2.617-.013,2.45-1.412,3.92-1.207a2.548,2.548,0,0,0,.927-.027Q239.55,255.889,239.462,254.844Z" transform="translate(-21.349 -47.491)" fill="#5c240d"/>
    <path id="Path_559" data-name="Path 559" d="M214.663,181.344c-.416,1.441-4.482,8.447-7.625,11.2-1.328,1.163-.623,1.914,1.01,1.914-.758,1.464-4.366,4.529-5.553,5.4-2.616,1.907-.327,3.073,1.551,2.6a41.868,41.868,0,0,1-6.206,6.283c-2.45,1.912.817,2.731,1.47,2.39-.164.82,1.061,3.278,5.634,1.366.163,1.229,2.2,2.322,3.021.82s.98-.683,1.552-.068,1.307,1.458,3.92,1.344,2.45-1.412,3.92-1.207,2.2-.683,2.858-1.776a11.8,11.8,0,0,0,2.94,2.117,1.8,1.8,0,0,0,2.369-1.775c.979.2,4.573.614,5.634-1.981.98.136,3.449.211,2.777-.751-1.051-1.5-3.593-1.981-6.86-5.8-1.814-2.123-.357-1.227.408-1.5,1.4-.505.981-1.634-.735-3.142-1.877-1.649-5.139-5-3.751-4.656s1.874-.124.812-1.353-6.64-8.783-7.677-11.4C215.369,179.409,214.9,180.532,214.663,181.344Z" transform="translate(0 -5.066)" fill="url(#linear-gradient)"/>
    <g id="Group_372" data-name="Group 372" transform="translate(196.943 201.845)">
      <path id="Path_560" data-name="Path 560" d="M230.951,242.4c-.427,0,.968,1.831-.78,1.23-1.348,4.2-5.032,1.58-6.013,1.376-.081,1.775-.678,2.4-1.5,2.191s-2.322-2.719-2.975-3.266c.051,1.633-.515,4-3.855,2.713-.155,1.452-2.425,2.77-5.047,2.039-1.555-.434-1.7-1.007-2.455-.842-1.634,1.547-3.546-.516-3.386-2.106-4.574,1.912-2.636-1.2-2.472-2.02-1.953,2.579-6.064,2.535-4.652.517-2.412,1.9.837,2.715,1.49,2.374-.164.82,1.061,3.278,5.634,1.366.163,1.229,2.2,2.322,3.021.82s.965-.672,1.552-.068c1.15,1.183,1.835,1.354,3.92,1.344,2.617-.013,2.45-1.412,3.92-1.207s2.2-.683,2.858-1.776a11.8,11.8,0,0,0,2.94,2.117,1.8,1.8,0,0,0,2.369-1.775c.979.2,4.573.614,5.634-1.981.98.136,3.449.211,2.777-.751A18.34,18.34,0,0,0,230.951,242.4Z" transform="translate(-196.943 -242.396)" fill="url(#linear-gradient-2)"/>
    </g>
    <path id="Path_561" data-name="Path 561" d="M220.571,210.429c-.149.208.405.994.948,1.072,1.93.28,3.038-1.893,3.174-3.263a3.313,3.313,0,0,1-2.555,2,.933.933,0,0,1-1.063-.854c-.735.876-2.21.317-1.514-.865C218.232,209.678,218.938,210.429,220.571,210.429Z" transform="translate(-12.523 -21.04)" fill="url(#linear-gradient-3)"/>
    <path id="Path_562" data-name="Path 562" d="M246.635,200.483a9.406,9.406,0,0,0,1.715.467c.873.053,1.054-.441.176-1.457-.7-.807-3.339-4.336-5.365-7.409-.231-.03-.168.278-.031.593.354.812,3.209,4.561,3.648,5.28.533.874-1,1.552-2.077.105.819,1.874-1.421,3.3-3.662,2.127.463,1.1-.34,1.418-.825,1.225a.964.964,0,0,0,1.519-.451A3.114,3.114,0,0,0,246.635,200.483Z" transform="translate(-24.717 -11.811)" fill="url(#linear-gradient-4)"/>
    <path id="Path_563" data-name="Path 563" d="M220.753,230.762c-2.277.8-2.662-1.507-2.782-2.913-.12,2.511-2.7,2.059-2.763,1.456-1.82,1.608-4.39.834-2.385-2.173-3.263,2.312-6.115,1.418-4.978-.3h0c-1.818,1.673.283,2.651,2.03,2.206-.09.12-.2.254-.315.4h0c-.282,4.391,4.856,2.243,5.468.765.18,1.657,1.8,1.822,2.97.517C218.485,232.075,220.794,231.414,220.753,230.762Z" transform="translate(-5.828 -31.663)" fill="url(#linear-gradient-3)"/>
    <path id="Path_564" data-name="Path 564" d="M257.1,223.2c1.4-.505.981-1.634-.735-3.142-.657-.577-1.484-1.362-2.222-2.125-.778-.755-1.2-.178-.527.257,3.436,2.22,4.326,5.522-.459,3.173.592.729.844,2.578,0,2.787-.628.156-1.336-.81-1.849-.6-.326.136.2.6-.323,1.616a1.951,1.951,0,0,1-2.2.576c.118.729,2.724.774,3.135-.816,1.387.816,3.219.128,2.493-1.262.376.042.957.123,1.612.191C255.355,222.853,256.465,223.431,257.1,223.2Z" transform="translate(-29.615 -26.369)" fill="url(#linear-gradient-4)"/>
    <path id="Path_565" data-name="Path 565" d="M238.4,181.962l1.194.525a10.693,10.693,0,0,1-.557-1.143c-.765-1.935-1.236-.812-1.47,0a8.428,8.428,0,0,1-.53,1.218Z" transform="translate(-22.9 -5.066)" fill="url(#linear-gradient-7)"/>
    <path id="Path_566" data-name="Path 566" d="M241.185,189.53a.813.813,0,1,0-.369,1.089A.813.813,0,0,0,241.185,189.53Z" transform="translate(-24.391 -10.094)" fill="#0f892b"/>
    <path id="Path_567" data-name="Path 567" d="M245.631,200.235a.813.813,0,1,0-.369,1.089A.814.814,0,0,0,245.631,200.235Z" transform="translate(-26.931 -16.209)" fill="#0f892b"/>
    <g id="Group_373" data-name="Group 373" transform="translate(215.123 178.724)">
      <path id="Path_568" data-name="Path 568" d="M240.885,188.929a.813.813,0,1,1-1.089-.37A.813.813,0,0,1,240.885,188.929Z" transform="translate(-239.342 -188.475)" fill="url(#radial-gradient)"/>
      <path id="Path_569" data-name="Path 569" d="M240.912,189.136a.746.746,0,0,0-.8-.441.7.7,0,0,0-.581.7c.01.268.409.5.638-.158C240.3,188.872,241.013,189.386,240.912,189.136Z" transform="translate(-239.451 -188.594)" fill="url(#linear-gradient-8)"/>
    </g>
    <g id="Group_374" data-name="Group 374" transform="translate(217.287 183.298)">
      <path id="Path_570" data-name="Path 570" d="M246,199.773a.813.813,0,1,1-.973-.612A.813.813,0,0,1,246,199.773Z" transform="translate(-244.389 -199.14)" fill="url(#radial-gradient-2)"/>
      <path id="Path_571" data-name="Path 571" d="M246.029,199.954a.745.745,0,0,0-.675-.614.7.7,0,0,0-.727.545c-.052.262.282.576.656-.006C245.493,199.554,246.068,200.22,246.029,199.954Z" transform="translate(-244.522 -199.254)" fill="url(#linear-gradient-9)"/>
    </g>
    <path id="Path_572" data-name="Path 572" d="M235.006,203.443a1.043,1.043,0,1,0,.643,1.327A1.042,1.042,0,0,0,235.006,203.443Z" transform="translate(-20.951 -18.267)" fill="#0f892b"/>
    <g id="Group_375" data-name="Group 375" transform="translate(212.927 184.924)">
      <path id="Path_573" data-name="Path 573" d="M236.25,204.318a1.043,1.043,0,1,1-.643-1.327A1.043,1.043,0,0,1,236.25,204.318Z" transform="translate(-234.222 -202.933)" fill="url(#radial-gradient-3)"/>
      <path id="Path_574" data-name="Path 574" d="M236.49,204.453a.956.956,0,0,0-.317-1.126.9.9,0,0,0-1.161.1c-.235.249-.085.818.718.44C236.179,203.655,236.352,204.77,236.49,204.453Z" transform="translate(-234.615 -203.063)" fill="url(#linear-gradient-10)"/>
    </g>
    <path id="Path_575" data-name="Path 575" d="M243.276,215.042a1.285,1.285,0,1,0,1.285,1.285A1.285,1.285,0,0,0,243.276,215.042Z" transform="translate(-25.732 -24.926)" fill="#0f892b"/>
    <g id="Group_376" data-name="Group 376" transform="translate(215.936 189.987)">
      <path id="Path_576" data-name="Path 576" d="M243.809,216.026a1.285,1.285,0,1,1-1.285-1.286A1.285,1.285,0,0,1,243.809,216.026Z" transform="translate(-241.239 -214.74)" fill="url(#radial-gradient-4)"/>
      <path id="Path_577" data-name="Path 577" d="M243.923,216.264a1.178,1.178,0,0,0-.824-1.183,1.107,1.107,0,0,0-1.312.585c-.173.385.232.987,1.013.222C243.238,215.459,243.891,216.688,243.923,216.264Z" transform="translate(-241.53 -214.91)" fill="url(#linear-gradient-11)"/>
    </g>
    <path id="Path_578" data-name="Path 578" d="M226.671,220.948a1.682,1.682,0,1,0-1.058,2.13A1.682,1.682,0,0,0,226.671,220.948Z" transform="translate(-15.11 -27.645)" fill="#0f892b"/>
    <g id="Group_377" data-name="Group 377" transform="translate(208.607 192.028)">
      <path id="Path_579" data-name="Path 579" d="M227.423,220.647a1.682,1.682,0,1,1-2.131-1.057A1.682,1.682,0,0,1,227.423,220.647Z" transform="translate(-224.146 -219.502)" fill="url(#radial-gradient-5)"/>
      <path id="Path_580" data-name="Path 580" d="M227.477,221.045a1.544,1.544,0,0,0-1.516-1.123,1.449,1.449,0,0,0-1.382,1.274c-.053.55.7,1.127,1.35-.148C226.292,220.334,227.615,221.585,227.477,221.045Z" transform="translate(-224.392 -219.741)" fill="url(#linear-gradient-12)"/>
    </g>
    <path id="Path_581" data-name="Path 581" d="M217.983,243.436a1.234,1.234,0,1,0,.708,1.6A1.235,1.235,0,0,0,217.983,243.436Z" transform="translate(-11.06 -41.097)" fill="#0f892b"/>
    <g id="Group_378" data-name="Group 378" transform="translate(205.18 201.998)">
      <path id="Path_582" data-name="Path 582" d="M218.541,244.43a1.234,1.234,0,1,1-.708-1.6A1.235,1.235,0,0,1,218.541,244.43Z" transform="translate(-216.155 -242.752)" fill="url(#radial-gradient-6)"/>
      <path id="Path_583" data-name="Path 583" d="M218.846,244.583a1.131,1.131,0,0,0-.329-1.345,1.064,1.064,0,0,0-1.378.072c-.287.286-.133.964.832.549C218.511,243.626,218.672,244.953,218.846,244.583Z" transform="translate(-216.643 -242.905)" fill="url(#linear-gradient-13)"/>
    </g>
    <path id="Path_584" data-name="Path 584" d="M238.494,245.717a1.619,1.619,0,1,0-.809,2.142A1.619,1.619,0,0,0,238.494,245.717Z" transform="translate(-21.967 -41.903)" fill="#0f892b"/>
    <g id="Group_379" data-name="Group 379" transform="translate(213.239 202.602)">
      <path id="Path_585" data-name="Path 585" d="M238.043,245.115a1.619,1.619,0,1,1-2.143-.81A1.619,1.619,0,0,1,238.043,245.115Z" transform="translate(-234.948 -244.162)" fill="url(#radial-gradient-7)"/>
      <path id="Path_586" data-name="Path 586" d="M238.095,245.522a1.483,1.483,0,0,0-1.56-.932,1.4,1.4,0,0,0-1.2,1.352c0,.531.779,1.013,1.28-.271C236.892,244.952,238.278,246.025,238.095,245.522Z" transform="translate(-235.167 -244.397)" fill="url(#linear-gradient-14)"/>
    </g>
    <path id="Path_587" data-name="Path 587" d="M255.246,244.607a1.069,1.069,0,1,0-.536,1.415A1.07,1.07,0,0,0,255.246,244.607Z" transform="translate(-32.135 -41.453)" fill="#0f892b"/>
    <g id="Group_380" data-name="Group 380" transform="translate(220.808 202.523)">
      <path id="Path_588" data-name="Path 588" d="M254.644,244.607a1.069,1.069,0,1,1-1.414-.536A1.07,1.07,0,0,1,254.644,244.607Z" transform="translate(-252.6 -243.976)" fill="url(#radial-gradient-8)"/>
      <path id="Path_589" data-name="Path 589" d="M254.679,244.875a.981.981,0,0,0-1.03-.617.922.922,0,0,0-.795.892c0,.352.513.67.845-.178C253.885,244.5,254.8,245.208,254.679,244.875Z" transform="translate(-252.745 -244.132)" fill="url(#linear-gradient-15)"/>
    </g>
    <path id="Path_590" data-name="Path 590" d="M252.863,221.264a1.069,1.069,0,1,0,.73,1.325A1.07,1.07,0,0,0,252.863,221.264Z" transform="translate(-31.161 -28.456)" fill="#0f892b"/>
    <g id="Group_381" data-name="Group 381" transform="translate(220.27 192.508)">
      <path id="Path_591" data-name="Path 591" d="M253.442,221.988a1.07,1.07,0,1,1-.73-1.325A1.069,1.069,0,0,1,253.442,221.988Z" transform="translate(-251.345 -220.621)" fill="url(#radial-gradient-9)"/>
      <path id="Path_592" data-name="Path 592" d="M253.659,222.136a.982.982,0,0,0-.385-1.137.922.922,0,0,0-1.184.165c-.227.268-.042.843.759.412C253.3,221.334,253.535,222.467,253.659,222.136Z" transform="translate(-251.719 -220.754)" fill="url(#linear-gradient-16)"/>
    </g>
    <g id="Group_382" data-name="Group 382" transform="translate(212.434 171.405)">
      <path id="Path_593" data-name="Path 593" d="M236.145,171.4l.949,1.924,2.123.309-1.537,1.5.363,2.115-1.9-1-1.9,1,.363-2.115-1.537-1.5,2.123-.309Z" transform="translate(-233.071 -171.405)" fill="url(#linear-gradient-17)"/>
      <path id="Path_594" data-name="Path 594" d="M233.071,176.611l3.074.69-1.537.808Z" transform="translate(-233.071 -174.379)" fill="#fff000"/>
      <path id="Path_595" data-name="Path 595" d="M237.709,178.216l-1.9,2.924,1.9-1Z" transform="translate(-234.635 -175.296)" fill="#fff000"/>
      <path id="Path_596" data-name="Path 596" d="M242.138,181.141l-1.9-2.924,1.536.81Z" transform="translate(-237.166 -175.296)" fill="#fff000"/>
      <path id="Path_597" data-name="Path 597" d="M243.312,176.2l-3.073.688.949-1Z" transform="translate(-237.166 -173.967)" fill="#fff000"/>
      <path id="Path_598" data-name="Path 598" d="M238.974,171.4l-.95,1.924.95,1Z" transform="translate(-235.9 -171.405)" fill="url(#linear-gradient-18)"/>
      <path id="Path_599" data-name="Path 599" d="M236.145,171.4l.4,2.5,2.674-.269-2.461,1.011,1.287,2.6-1.9-2.115-1.9,2.115,1.229-2.57-2.4-1.042,2.676.272Z" transform="translate(-233.071 -171.405)" fill="url(#radial-gradient-10)"/>
    </g>
  </g>
</svg>
