<svg id="Group_98" data-name="Group 98" xmlns="http://www.w3.org/2000/svg" width="14.687" height="14.688" viewBox="0 0 14.687 14.688">
  <path id="Path_230" data-name="Path 230" d="M151.654,2.874l-2.7-2.7a.593.593,0,0,0-.839,0l-6.75,6.75a.594.594,0,0,0-.174.42v2.7a.593.593,0,0,0,.593.593h2.7a.593.593,0,0,0,.419-.174l6.75-6.75a.593.593,0,0,0,0-.839Zm-7.416,6.577h-1.861V7.59l6.157-6.157L150.4,3.294Z" transform="translate(-137.141 0)" fill="#fff"/>
  <path id="Path_231" data-name="Path 231" d="M12.744,54.261a.593.593,0,0,0-.593.593v3.6a.758.758,0,0,1-.757.757H1.943a.758.758,0,0,1-.757-.757V49.008a.758.758,0,0,1,.757-.757h3.6a.593.593,0,1,0,0-1.187h-3.6A1.946,1.946,0,0,0,0,49.008v9.451A1.946,1.946,0,0,0,1.943,60.4h9.451a1.946,1.946,0,0,0,1.943-1.943v-3.6A.593.593,0,0,0,12.744,54.261Z" transform="translate(0 -45.715)" fill="#fff"/>
</svg>
