<svg xmlns="http://www.w3.org/2000/svg" width="143.328" height="52.742" viewBox="0 0 143.328 52.742">
  <g id="logo" transform="translate(1.928 4)">
    <path id="Path_200" data-name="Path 200" d="M71.065-13.224a11.194,11.194,0,0,1-2.239,7.2,7.351,7.351,0,0,1-6.071,2.81q-3.832,0-5.094-1.893a5.262,5.262,0,0,1-.781-2.93,19.878,19.878,0,0,1,.3-3.441L61.027-33.24h5.109l-.9,5.019h7.483l-.751,4.238H66.076a13.778,13.778,0,0,1,3.561,4.448A13.444,13.444,0,0,1,71.065-13.224Zm-7.543,5.71q.932,0,1.593-1.5a9.929,9.929,0,0,0,.661-3.952,25.306,25.306,0,0,0-.5-4.944,16.451,16.451,0,0,0-1.187-3.907l-1.8,10.308a11.043,11.043,0,0,0-.18,1.833Q62.109-7.514,63.522-7.514Zm16.409-10.1a2.494,2.494,0,0,0,1.232-.3l-.15,3.4A4.9,4.9,0,0,1,77.8-13.344q-2.735,0-3.546-1.262a3.251,3.251,0,0,1-.541-1.788,10.248,10.248,0,0,1,.12-1.668l1.8-10.158h5.109L79.06-18.754a2.024,2.024,0,0,0-.03.331Q79.03-17.612,79.931-17.612Zm-3.7-15.508a3.93,3.93,0,0,1,.857-2.81,3.55,3.55,0,0,1,2.66-.887q2.524,0,2.525,2.224a3.825,3.825,0,0,1-.857,2.765,3.634,3.634,0,0,1-2.69.872Q76.235-30.956,76.235-33.119ZM89.428-13.344q-3.486,0-5.019-1.563a4.143,4.143,0,0,1-1.142-3.065,8.251,8.251,0,0,1,.12-1.352l2.044-11.631,5.5-2.284-.872,5.019h8.295L97.6-23.983H89.308l-.6,3.4a5.017,5.017,0,0,0-.12,1.022q0,1.893,1.8,1.893A1.979,1.979,0,0,0,92-18.483a4.757,4.757,0,0,0,.887-2.164h4.989Q96.611-13.344,89.428-13.344Zm32.278-.421H106.619L110.436-35.4h15.087l-.842,4.688H115l-.691,4.057h7.994l-.841,4.688h-7.994l-.6,3.516h9.677Zm17.642-4.628a.7.7,0,0,0,.8.781,2.722,2.722,0,0,0,1.337-.3l-.15,3.4a5.014,5.014,0,0,1-3.246,1.172q-3.306,0-3.667-2.4a4.887,4.887,0,0,1-4.418,2.4q-4.929,0-4.929-4.238a9.439,9.439,0,0,1,.15-1.593l.631-3.516A7.48,7.48,0,0,1,128.062-27a6.353,6.353,0,0,1,4.508-1.608q2.78,0,3.772,1.292l.15-.9h4.568l-1.683,9.467A2.19,2.19,0,0,0,139.347-18.393Zm-8.9-1.443a3.645,3.645,0,0,0-.06.751,1.372,1.372,0,0,0,.451.947,2.053,2.053,0,0,0,1.518.466,2.442,2.442,0,0,0,1.848-.842l.9-5.049q-.331-.751-1.563-.751a2.453,2.453,0,0,0-2.7,2.224Zm19.325,6.492q-3.486,0-5.019-1.563a4.143,4.143,0,0,1-1.142-3.065,8.252,8.252,0,0,1,.12-1.352l2.044-11.631,5.5-2.284-.872,5.019-.751,4.238-.6,3.4a5.017,5.017,0,0,0-.12,1.022q0,1.893,1.8,1.893a1.979,1.979,0,0,0,1.608-.811,4.757,4.757,0,0,0,.887-2.164h4.989Q156.959-13.344,149.776-13.344Z" transform="translate(-21.837 51.958)" fill="#fff"/>
    <g id="Group_2" data-name="Group 2" transform="translate(3.729 0)">
      <line id="Line_1" data-name="Line 1" y2="9.105" transform="translate(17.003)" fill="none" stroke="#f7be00" stroke-linecap="round" stroke-width="8"/>
      <line id="Line_2" data-name="Line 2" x1="7.277" y2="7.082" transform="translate(27.119 2.023)" fill="none" stroke="#f7be00" stroke-linecap="round" stroke-width="8"/>
      <line id="Line_3" data-name="Line 3" x2="6.886" y2="7.082" transform="translate(0 2.023)" fill="none" stroke="#f7be00" stroke-linecap="round" stroke-width="8"/>
    </g>
    <path id="Path_201" data-name="Path 201" d="M16-12.921H.912L4.729-34.56H19.816l-.842,4.688H9.3l-.691,4.057H16.6l-.842,4.688H7.764l-.6,3.516H16.84Zm18.513,0H18.674l.842-4.688h.03L31.176-29.872H21.649l.842-4.688H38.359l-.842,4.688L25.887-17.61h9.467Z" transform="translate(-0.912 51.115)" fill="#f7be00"/>
    <path id="Subtraction_1" data-name="Subtraction 1" d="M4.656,7.216a3.8,3.8,0,0,1-1.38-.254A8.269,8.269,0,0,1,.8,5.575c.925-.169,3.1-.608,4.279-.886A23.72,23.72,0,0,0,9.569,2.4l-.007,0A29,29,0,0,1,3.42,4.192a24.9,24.9,0,0,1-3.377.313.85.85,0,0,1-.037-.36A12.49,12.49,0,0,1,1.745,2.123,7.08,7.08,0,0,1,6.073.006c.1,0,.2-.006.293-.006a2.865,2.865,0,0,1,2,.563c.065.053.125.106.183.157a1.212,1.212,0,0,0,.9.406A4.783,4.783,0,0,0,11.093.682a2.894,2.894,0,0,1,.989-.26.378.378,0,0,1,.38.184c.318.676-1.609,3.015-1.629,3.039A14.264,14.264,0,0,1,8.922,5.43,7.512,7.512,0,0,1,4.656,7.216Z" transform="matrix(0.996, -0.087, 0.087, 0.996, 128.321, 20.104)" fill="#fff"/>
  </g>
</svg>
