<svg xmlns="http://www.w3.org/2000/svg" width="185" height="247" viewBox="0 0 185 247">
  <defs>
    <style>
      .cls-1 {
        fill: #c9e6bf;
      }

      .cls-2, .cls-6 {
        fill: none;
      }

      .cls-2 {
        stroke: #c9e6bf;
        stroke-width: 5px;
      }

      .cls-3, .cls-4 {
        fill: #439a23;
      }

      .cls-4 {
        font-size: 25px;
        font-family: SourceHanSansTW-Regular, Source Han Sans TW;
      }

      .cls-5 {
        stroke: none;
      }
    </style>
  </defs>
  <g id="Group_16" data-name="Group 16" transform="translate(-814 -1820)">
    <g id="Group_114" data-name="Group 114">
      <g id="Group_11" data-name="Group 11" transform="translate(0 46)">
        <circle id="Ellipse_8" data-name="Ellipse 8" class="cls-1" cx="81.5" cy="81.5" r="81.5" transform="translate(825 1847)"/>
        <g id="Ellipse_9" data-name="Ellipse 9" class="cls-2" transform="translate(814 1836)">
          <circle class="cls-5" cx="92.5" cy="92.5" r="92.5"/>
          <circle class="cls-6" cx="92.5" cy="92.5" r="90"/>
        </g>
      </g>
      <g id="Group_15" data-name="Group 15" transform="translate(843.552 1917.847)">
        <path id="Path_211" data-name="Path 211" class="cls-3" d="M21.367,40.9c.013-.38,0-.617,0-.617s-.012.007-.022.014l-.292-15.129c0-.878-.144-1.591-.711-1.591s-.713.713-.713,1.591L19.319,41.32v.561a.456.456,0,1,1-.912,0L18.1,25.173c0-.878-.142-1.591-.71-1.591s-.714.713-.714,1.591l-.311,16.82a.455.455,0,1,1-.91,0l-.308-16.82c0-.878-.147-1.591-.711-1.591s-.715.713-.715,1.591l-.3,16.6a.455.455,0,1,1-.91,0l-.316-16.6c0-.878-.144-1.591-.713-1.591s-.711.713-.711,1.591l-.3,15.129a.149.149,0,0,0-.024-.014s0,.238.009.619l-.009.317a2.439,2.439,0,0,0,.054.507c.126,1.563.54,3.905,1.873,4.418,1.8.7,2.13,2.427,2.287,4.016l-.362,9.5c-1.223.436-1.584,1.559-1.584,2.888L11.456,87.1c0,1.708,1.836,3.089,4.1,3.089s4.1-1.381,4.1-3.089L18.4,62.552a3.153,3.153,0,0,0-.857-2.473l-.377-9.917c.156-1.586.49-3.318,2.288-4.013,1.333-.513,1.743-2.855,1.871-4.418a2.509,2.509,0,0,0,.054-.507Z"/>
        <g id="Group_14" data-name="Group 14">
          <path id="Path_212" data-name="Path 212" class="cls-3" d="M62.849,27.883c-15.682,0-28.442,12.973-28.442,28.916s12.76,28.916,28.442,28.916S91.288,72.744,91.288,56.8,78.532,27.883,62.849,27.883Z"/>
          <path id="Path_213" data-name="Path 213" class="cls-3" d="M62.676,18.153c-21.041,0-38.1,17.3-38.1,38.648s17.058,38.647,38.1,38.647,38.1-17.3,38.1-38.647S83.716,18.153,62.676,18.153Zm.173,72.616c-18.423,0-33.412-15.238-33.412-33.97S44.426,22.832,62.849,22.832,96.262,38.072,96.262,56.8,81.271,90.769,62.849,90.769Z"/>
        </g>
        <path id="Path_214" data-name="Path 214" class="cls-3" d="M113.878,62.39a3.328,3.328,0,0,0-.891-2.591c-.01-.542-.027-1.083-.034-1.624-.005-.364-.011-.73-.011-1.092a15.211,15.211,0,0,1,.267-2.331c.125-.907.143-1.83.2-2.738.069-1.222.1-2.445.138-3.669q.062-2.141.089-4.289c.025-1.535.038-3.072.051-4.607s.013-3.065.017-4.6q0-2.135-.006-4.268c-.006-1.21-.011-2.419-.024-3.625,0-.884-.015-1.766-.027-2.65-.007-.447-.009-.894-.027-1.34,0-.033,0-.071-.008-.1a.85.85,0,0,0-1.01-.758,4.008,4.008,0,0,0-2.5,1.5c-1.084,1.215-2.167,4.238-3.352,9.057l-.5,2.006c-1.64,6.433-.123,18.894,1.283,21.192a3.867,3.867,0,0,0,.979,1.1c-.011,1.045-.027,2.125-.05,3.2a3.845,3.845,0,0,0-.557,2.228l-1.331,25.854c0,1.8,1.934,3.255,4.323,3.255s4.323-1.458,4.323-3.255Z"/>
      </g>
    </g>
    <text id="隨時享用" class="cls-4" transform="translate(907 1849)"><tspan x="-50" y="0">隨時享用</tspan></text>
  </g>
</svg>
