<svg xmlns="http://www.w3.org/2000/svg" width="63" height="63" viewBox="0 0 63 63">
  <defs>
    <style>
      .cls-1 {
        fill: #fff;
        fill-rule: evenodd;
      }
    </style>
  </defs>
  <path id="ig" class="cls-1" d="M31.5,5.6c8.4,0,9.45,0,12.6.35A16.234,16.234,0,0,1,50.05,7,12.292,12.292,0,0,1,56,12.95a16.233,16.233,0,0,1,1.05,5.95c0,3.15.35,4.2.35,12.6s0,9.45-.35,12.6A16.234,16.234,0,0,1,56,50.05,12.292,12.292,0,0,1,50.05,56a16.233,16.233,0,0,1-5.95,1.05c-3.15,0-4.2.35-12.6.35s-9.45,0-12.6-.35A16.234,16.234,0,0,1,12.95,56,12.292,12.292,0,0,1,7,50.05,16.233,16.233,0,0,1,5.95,44.1c0-3.15-.35-4.2-.35-12.6s0-9.45.35-12.6A16.233,16.233,0,0,1,7,12.95a12.57,12.57,0,0,1,2.45-3.5A5.917,5.917,0,0,1,12.95,7,16.233,16.233,0,0,1,18.9,5.95c3.15-.35,4.2-.35,12.6-.35m0-5.6c-8.4,0-9.8,0-12.95.35a21.608,21.608,0,0,0-7.7,1.4,13.7,13.7,0,0,0-5.6,3.5,13.7,13.7,0,0,0-3.5,5.6c-1.05,2.1-1.4,4.2-1.4,7.7C0,21.7,0,23.1,0,31.5s0,9.8.35,12.95a21.608,21.608,0,0,0,1.4,7.7,13.7,13.7,0,0,0,3.5,5.6,13.7,13.7,0,0,0,5.6,3.5,21.607,21.607,0,0,0,7.7,1.4C21.7,63,23.1,63,31.5,63s9.8,0,12.95-.35a21.608,21.608,0,0,0,7.7-1.4,14.684,14.684,0,0,0,9.1-9.1,21.607,21.607,0,0,0,1.4-7.7c0-3.5.35-4.55.35-12.95s0-9.8-.35-12.95a21.608,21.608,0,0,0-1.4-7.7,13.7,13.7,0,0,0-3.5-5.6,13.7,13.7,0,0,0-5.6-3.5,21.608,21.608,0,0,0-7.7-1.4C41.3,0,39.9,0,31.5,0m0,15.4A15.841,15.841,0,0,0,15.4,31.5,16.1,16.1,0,1,0,31.5,15.4m0,26.6A10.313,10.313,0,0,1,21,31.5,10.313,10.313,0,0,1,31.5,21,10.313,10.313,0,0,1,42,31.5,10.313,10.313,0,0,1,31.5,42M48.3,10.85a3.85,3.85,0,1,0,3.85,3.85,3.884,3.884,0,0,0-3.85-3.85"/>
</svg>
