<svg xmlns="http://www.w3.org/2000/svg" width="189.219" height="68.989" viewBox="0 0 189.219 68.989">
  <defs>
    <style>
      .cls-1 {
        fill: #439a23;
      }

      .cls-2 {
        fill: none;
        stroke: #f7be00;
        stroke-linecap: round;
        stroke-width: 8px;
      }

      .cls-3 {
        fill: #f7be00;
      }
    </style>
  </defs>
  <g id="logo" transform="translate(0.685 4)">
    <path id="Path_200" data-name="Path 200" class="cls-1" d="M75.794-5.36a14.925,14.925,0,0,1-2.985,9.6,9.8,9.8,0,0,1-8.094,3.747q-5.109,0-6.792-2.525A7.017,7.017,0,0,1,56.88,1.553a26.5,26.5,0,0,1,.4-4.588L62.41-32.047h6.812l-1.2,6.692H78l-1,5.65H69.142a18.37,18.37,0,0,1,4.748,5.931A17.926,17.926,0,0,1,75.794-5.36ZM65.736,2.254q1.242,0,2.124-2a13.239,13.239,0,0,0,.882-5.269,33.742,33.742,0,0,0-.661-6.592A21.935,21.935,0,0,0,66.5-16.82l-2.4,13.745a14.724,14.724,0,0,0-.24,2.444Q63.852,2.254,65.736,2.254ZM87.615-11.21a3.326,3.326,0,0,0,1.643-.4l-.2,4.528A6.529,6.529,0,0,1,84.77-5.52q-3.647,0-4.728-1.683a4.335,4.335,0,0,1-.721-2.384,13.664,13.664,0,0,1,.16-2.224l2.4-13.544H88.7L86.453-12.733a2.7,2.7,0,0,0-.04.441Q86.413-11.21,87.615-11.21ZM82.686-31.887a5.24,5.24,0,0,1,1.142-3.747,4.734,4.734,0,0,1,3.546-1.182q3.366,0,3.366,2.965A5.1,5.1,0,0,1,89.6-30.164,4.845,4.845,0,0,1,86.012-29Q82.686-29,82.686-31.887ZM100.278-5.52q-4.648,0-6.692-2.084a5.523,5.523,0,0,1-1.523-4.087,11,11,0,0,1,.16-1.8L94.948-29l7.333-3.045-1.162,6.692h11.06l-1,5.65h-11.06l-.8,4.528a6.689,6.689,0,0,0-.16,1.362q0,2.525,2.4,2.525a2.639,2.639,0,0,0,2.144-1.082,6.343,6.343,0,0,0,1.182-2.885h6.652Q109.855-5.52,100.278-5.52Zm43.037-.561H123.2l5.089-28.852H148.4l-1.122,6.251h-12.9l-.922,5.41h10.659l-1.122,6.251H132.335l-.8,4.688h12.9Zm23.522-6.171A.93.93,0,0,0,167.9-11.21a3.629,3.629,0,0,0,1.783-.4l-.2,4.528a6.685,6.685,0,0,1-4.328,1.563q-4.408,0-4.889-3.206a6.516,6.516,0,0,1-5.891,3.206q-6.572,0-6.572-5.65a12.586,12.586,0,0,1,.2-2.124l.842-4.688a9.973,9.973,0,0,1,2.945-5.75,8.471,8.471,0,0,1,6.011-2.144q3.707,0,5.029,1.723l.2-1.2h6.091l-2.244,12.623A2.92,2.92,0,0,0,166.836-12.252Zm-11.861-1.923a4.86,4.86,0,0,0-.08,1,1.83,1.83,0,0,0,.6,1.262,2.738,2.738,0,0,0,2.024.621,3.256,3.256,0,0,0,2.464-1.122l1.2-6.732q-.441-1-2.084-1a3.271,3.271,0,0,0-3.606,2.965ZM180.741-5.52q-4.648,0-6.692-2.084a5.523,5.523,0,0,1-1.523-4.087,11,11,0,0,1,.16-1.8L175.412-29l7.333-3.045-1.162,6.692-1,5.65-.8,4.528a6.689,6.689,0,0,0-.16,1.362q0,2.525,2.4,2.525a2.639,2.639,0,0,0,2.144-1.082,6.343,6.343,0,0,0,1.182-2.885H192Q190.318-5.52,180.741-5.52Z" transform="translate(-10.157 57.005)"/>
    <g id="Group_2" data-name="Group 2" transform="translate(4.971)">
      <line id="Line_1" data-name="Line 1" class="cls-2" y2="12.14" transform="translate(22.67 0)"/>
      <line id="Line_2" data-name="Line 2" class="cls-2" x1="9.703" y2="9.442" transform="translate(36.159 2.698)"/>
      <line id="Line_3" data-name="Line 3" class="cls-2" x2="9.182" y2="9.442" transform="translate(0 2.698)"/>
    </g>
    <path id="Path_201" data-name="Path 201" class="cls-3" d="M21.028-5.708H.912L6-34.56H26.117L25-28.309h-12.9L11.17-22.9H21.829l-1.122,6.251H10.048l-.8,4.688h12.9Zm24.684,0H24.594l1.122-6.251h.04L41.264-28.309h-12.7l1.122-6.251H50.841l-1.122,6.251L34.211-11.96H46.834Z" transform="translate(-0.912 56.633)"/>
    <path id="Subtraction_1" data-name="Subtraction 1" class="cls-1" d="M6.209,9.621a5.066,5.066,0,0,1-1.84-.338,11.025,11.025,0,0,1-3.306-1.85C2.3,7.208,5.2,6.623,6.769,6.251c1.812-.429,5.787-2.928,5.989-3.056l-.01,0A38.673,38.673,0,0,1,4.56,5.589a33.2,33.2,0,0,1-4.5.418,1.133,1.133,0,0,1-.05-.481,16.653,16.653,0,0,1,2.319-2.7A9.44,9.44,0,0,1,8.1.008C8.231,0,8.362,0,8.487,0a3.82,3.82,0,0,1,2.664.751c.087.071.167.141.244.209a1.616,1.616,0,0,0,1.2.541,6.377,6.377,0,0,0,2.2-.591A3.859,3.859,0,0,1,16.109.563a.5.5,0,0,1,.507.245c.424.9-2.145,4.02-2.171,4.052A19.019,19.019,0,0,1,11.9,7.24,10.016,10.016,0,0,1,6.209,9.621Z" transform="matrix(0.996, -0.087, 0.087, 0.996, 171.095, 26.806)"/>
  </g>
</svg>
