<?xml version="1.0" encoding="utf-8"?>
<!-- Generator: Adobe Illustrator 23.0.6, SVG Export Plug-In . SVG Version: 6.00 Build 0)  -->
<svg version="1.1" id="Layer_1" xmlns="http://www.w3.org/2000/svg" xmlns:xlink="http://www.w3.org/1999/xlink" x="0px" y="0px"
	 viewBox="0 0 1920 1080" style="enable-background:new 0 0 1920 1080;" xml:space="preserve">
<style type="text/css">
	.st0{fill-rule:evenodd;clip-rule:evenodd;fill:#FFFFFF;}
</style>
<path class="st0" d="M971,414c1.02,3.17,0.84,3.6-1,6c0,0.67,0,1.33,0,2c-1.33,0-2.67,0-4,0c-0.33-1.67-0.67-3.33-1-5
	c2.5-1.19,0.98,0.64,2-2c0.67,1,1.33,2,2,3c-0.33,0.67-0.67,1.33-1,2c1-0.67,2-1.33,3-2C971,416.67,971,415.33,971,414z"/>
<path class="st0" d="M949,418c1.03,3.88-0.17,5.42-3,8C947,423.33,948,420.67,949,418z"/>
<path class="st0" d="M943,419c3.6,3.47,0.79,5.61,5,9c2.67-1.67,5.33-3.33,8-5c-0.67,1.67-1.33,3.33-2,5c-8.29,2.21-12.43,4.98-14-4
	C941.84,422.39,941.92,421.42,943,419z"/>
<path class="st0" d="M974,419c-0.71,0.94,0.16,1.56-2,1C972.67,419.67,973.33,419.33,974,419z"/>
<path class="st0" d="M977,426c0.33,6.67,0.67,13.33,1,20c1-0.67,2-1.33,3-2c1-5,2-10,3-15c0.33,0,0.67,0,1,0c-0.33,4-0.67,8-1,12
	c0.33,0,0.67,0,1,0c3-2.33,6-4.67,9-7c-2.36,7.55-8.54,8.75-13,14c1.08,8.22,7.49,24.79,3,31c-1.13-25.81-11.15-27.3-24-40
	c0.4-4.03,0.33-3.91,2-6c0,0.67,0,1.33,0,2c2.76,5.32,2.92,7.06,8,10c-1-3.67-2-7.33-3-11c0.67-0.67,1.33-1.33,2-2
	c0.33,0,0.67,0,1,0c0.33,0.67,0.67,1.33,1,2c-1.49,5.36-0.61,7.15,3,10c0.67-0.33,1.33-0.67,2-1C975.21,436.62,974.87,431,977,426z"
	/>
<path class="st0" d="M991,427c0.74,3.06,0.27,4.51-2,7c0-1,0-2,0-3C989.67,429.67,990.33,428.33,991,427z"/>
<path class="st0" d="M930,429c0,1.67,0,3.33,0,5c-0.33,0-0.67,0-1,0C929.33,432.33,929.67,430.67,930,429z"/>
<path class="st0" d="M921,430c1,3.67,2,7.33,3,11c0.33,0,0.67,0,1,0c0.33-3.33,0.67-6.67,1-10c3.73,2.72,0.11,4.32,6,2
	c-5.07,15.01-4.43,10.11-1,28c-0.33,0-0.67,0-1,0c0-0.67,0-1.33,0-2c-1.33-4-2.67-8-4-12c-4.26-6.5-11.58-2.08-14-12
	c0.33,0,0.67,0,1,0c0,0.67,0,1.33,0,2c1.67,1.33,3.33,2.67,5,4c-0.33-2.33-0.67-4.67-1-7c0.33,0,0.67,0,1,0c0.49,4.96,0.47,4.58,3,7
	c0.33,0,0.67,0,1,0C921.67,437.33,921.33,433.67,921,430z"/>
<path class="st0" d="M947,432c2.33,1.33,4.67,2.67,7,4C949.67,435.07,949.3,434.64,947,432z"/>
<path class="st0" d="M1004,440c1.33,1.67,2.67,3.33,4,5c-0.33,1-0.67,2-1,3c-1.33-0.33-2.67-0.67-4-1
	C1003.33,444.67,1003.67,442.33,1004,440z"/>
<path class="st0" d="M1008,440c0.67,0,1.33,0,2,0c-0.33,1.33-0.67,2.67-1,4c-0.33,0-0.67,0-1,0C1008,442.67,1008,441.33,1008,440z"
	/>
<path class="st0" d="M952,445c1.67,1,3.33,2,5,3c-0.84,16.73,1.37,24.17,14,29c0,0.33,0,0.67,0,1c-8.24-2.52-13.69-13.35-20-13
	c-2.92,0.39-8.21,4.33-12,1c2-0.33,4-0.67,6-1c-0.67-0.33-1.33-0.67-2-1c-1.33-1.67-2.67-3.33-4-5c4.33,1,8.67,2,13,3
	c0-0.67,0-1.33,0-2c-3.67-2.33-7.33-4.67-11-7c4,1.67,8,3.33,12,5c0-1,0-2,0-3c-1.67-2-3.33-4-5-6c2.67,1.67,5.33,3.33,8,5
	C954.67,451,953.33,448,952,445z"/>
<path class="st0" d="M1010,445c1,0,2,0,3,0C1012,445,1011,445,1010,445z"/>
<path class="st0" d="M906,450c1.52,2.29,1.83,1.21,1,4c-1,2.67-2,5.33-3,8c-5-1.36-4.73-2.31-7-6c3.75-2.66,2.95,0.83,3-5
	c1,1.67,2,3.33,3,5c-0.33,0.67-0.67,1.33-1,2c1.33-0.67,2.67-1.33,4-2c0-0.33,0-0.67,0-1C906,453.33,906,451.67,906,450z"/>
<path class="st0" d="M1009,457c1,0,2,0,3,0c-0.29,8.91-3.18,10.14-5,17c-2.33-1-4.67-2-7-3c0.09-3.62-0.79-3.45-2-8
	c0.33,0,0.67,0,1,0c1.67,1,3.33,2,5,3c-0.67-2.67-1.33-5.33-2-8c1,0.67,2,1.33,3,2c0.67,2.33,1.33,4.67,2,7c1-0.67,2-1.33,3-2
	C1009.67,462.33,1009.33,459.67,1009,457z"/>
<path class="st0" d="M909,458c1,0,2,0,3,0c-0.33,0.67-0.67,1.33-1,2c-1.33,0-2.67,0-4,0C907.67,459.33,908.33,458.67,909,458z"/>
<path class="st0" d="M935,462c1.67,0.33,3.33,0.67,5,1c0,0.33,0,0.67,0,1C935.99,463.42,937.01,464.05,935,462z"/>
<path class="st0" d="M909,467c1,0,2,0,3,0c-0.94,6.36-1.24,9.24,4,12c-1.49-5.7,0.72-8.9,4-10c-1.56,3.2-2.84,4.85-2,8
	c2.28-1.61,1.77-1.81,5-3c-1,3.33-2,6.67-3,10c-2,0.33-4,0.67-6,1C912.38,477.79,909.51,476,909,467z"/>
<path class="st0" d="M1016,467c1,0,2,0,3,0c0,0.67,0,1.33,0,2c-0.67,0-1.33,0-2,0c-1.67,0-3.33,0-5,0c0.67,0,1.33,0,2,0
	C1014.67,468.33,1015.33,467.67,1016,467z"/>
<path class="st0" d="M1010,477c0.67,0,1.33,0,2,0c-0.33,1.67-0.67,3.33-1,5c-0.33,0-0.67,0-1,0C1010,480.33,1010,478.67,1010,477z"
	/>
<path class="st0" d="M903,478c2.33,1.33,4.67,2.67,7,4C905.93,481.08,904.96,481.12,903,478z"/>
<path class="st0" d="M1014,479c0.67,1,1.33,2,2,3c1.33-1,2.67-2,4-3c-1.33,2.67-2.67,5.33-4,8c5.11-2.63,4.59-2.64,6-2
	c3.99,1.45,0.62,0.08,3,3c-9.34-0.29-7.68,0.1-12,6c0.67-6.24-0.22-6.8-2-12C1012,481,1013,480,1014,479z"/>
<path class="st0" d="M935,480c2,2,4,4,6,6c1,4,2,8,3,12c-2.33,0.67-4.67,1.33-7,2c-1.98-2.91-4.46-2.89-7-5c0.33-0.33,0.67-0.67,1-1
	c3,0.33,6,0.67,9,1c0-2.33,0-4.67,0-7C938.33,485.33,936.67,482.67,935,480z"/>
<path class="st0" d="M948,483c2.07,1.96,1.04,0.37,2,4c-1,1.33-2,2.67-3,4c-0.33,0-0.67,0-1,0C946.67,488.33,947.33,485.67,948,483z
	"/>
<path class="st0" d="M995,483c0.67,0,1.33,0,2,0c-3.4,15.66-15.65,38.22-27,47C974.87,514.5,989.33,500.69,995,483z"/>
<path class="st0" d="M989,485c0.67,0,1.33,0,2,0c-1,3.33-2,6.67-3,10c-2.66-2.17-2.8-2.01-4-6C988.65,488.43,987.09,490.33,989,485z
	"/>
<path class="st0" d="M900,486c0,1.33,0,2.67,0,4C900,488.67,900,487.33,900,486z"/>
<path class="st0" d="M896,487c1.51,2.66,1.45,2,1,5c1-0.67,2-1.33,3-2c-0.33,1.33-0.67,2.67-1,4c-1.33,0-2.67,0-4,0
	c-0.33-1.67-0.67-3.33-1-5C896.5,487.81,894.98,489.64,896,487z"/>
<path class="st0" d="M999,487c0.67,0,1.33,0,2,0c-1.33,1.67-2.67,3.33-4,5C997.67,490.33,998.33,488.67,999,487z"/>
<path class="st0" d="M929,488c5.43,0.44,6.33,1.17,9,4c-3-0.67-6-1.33-9-2C929,489.33,929,488.67,929,488z"/>
<path class="st0" d="M961,490c0.67,1.33,1.33,2.67,2,4c-0.67-0.33-1.33-0.67-2-1C961,492,961,491,961,490z"/>
<path class="st0" d="M969,491c2.03,3.61,1.21,4.28,0,9c1.33-0.33,2.67-0.67,4-1c3.43,1.15,1.71-0.39,6-3c0,0.33,0,0.67,0,1
	c-0.33,1-0.67,2-1,3c-7.7,3.32-10.26,4.93-15,11c1-3,2-6,3-9c-2.34-3.13-5.71-4.66-5-8c4.38,0.52,0.53,1.01,5-2
	c-0.06,4.73,0.13,6.66,2,9C968.33,497.67,968.67,494.33,969,491z"/>
<path class="st0" d="M901,492c0.67,0,1.33,0,2,0C902.33,492,901.67,492,901,492z"/>
<path class="st0" d="M1002,492c-0.03,1.75,0.03,1.6-1,4c-1.33-0.33-2.67-0.67-4-1c0.67,0,1.33,0,2,0C1000,494,1001,493,1002,492z"/>
<path class="st0" d="M1012,494c0.33,0.67,0.67,1.33,1,2C1012.67,495.33,1012.33,494.67,1012,494z"/>
<path class="st0" d="M973,495c0.67,0,1.33,0,2,0c-0.33,1.33-0.67,2.67-1,4c-0.33,0-0.67,0-1,0C973,497.67,973,496.33,973,495z"/>
<path class="st0" d="M915,496c5.07,3.31,2.07,2.59,8,2c0,1,0,2,0,3c-1.44,2.89-1.59,3.02-2,5c8.17,3.16,27.22,11.68,34,18
	c-15.78-2.24-39.29-15.06-47-26c3,1.33,6,2.67,9,4c0-0.33,0-0.67,0-1C915.32,498.02,915.33,498.59,915,496z"/>
<path class="st0" d="M1011,496c0.33,0.67,0.67,1.33,1,2C1011.67,497.33,1011.33,496.67,1011,496z"/>
<path class="st0" d="M907,503c2,0.67,4,1.33,6,2c0,0.33,0,0.67,0,1c-1.33,0-2.67,0-4,0C908.33,505,907.67,504,907,503z"/>
<path class="st0" d="M949,504c0.67,0,1.33,0,2,0c-0.33,1-0.67,2-1,3C949.67,506,949.33,505,949,504z"/>
<path class="st0" d="M945,505c2.07,1.96,1.04,0.37,2,4c1-0.67,2-1.33,3-2c-1.39,4.5-0.52,3.6-5,5c-0.33-1.67-0.67-3.33-1-5
	C945.77,505.63,945.22,507.23,945,505z"/>
<path class="st0" d="M994,505c1.82,2.83,1.22,1,1,5c1.67-0.33,3.33-0.67,5-1c-0.33,0.67-0.67,1.33-1,2c-2,0-4,0-6,0
	c0.67,1.33,1.33,2.67,2,4c2.33,0,4.67,0,7,0c-1,0.67-2,1.33-3,2c-3.67-1.33-7.33-2.67-11-4c0.33-1.67,0.67-3.33,1-5
	C992.65,506.94,991.94,507.19,994,505z"/>
<path class="st0" d="M908,509c2,0,4,0,6,0c0,0.33,0,0.67,0,1c-0.67,0-1.33,0-2,0C909.28,511.31,910.08,510.44,908,509z"/>
<path class="st0" d="M952,509c0.67,0,1.33,0,2,0C953.33,509,952.67,509,952,509z"/>
<path class="st0" d="M962,511c0,2.33,0,4.67,0,7c-0.33,0-0.67,0-1,0C961.33,515.67,961.67,513.33,962,511z"/>
<path class="st0" d="M927,515c1.33,1.33,2.67,2.67,4,4c-2.74,4.4-4.01,7.49-10,9c0-0.33,0-0.67,0-1s0-0.67,0-1
	c4.02-1.14,3.83-1.37,6-4c0-1,0-2,0-3c-3.87-0.75-4-0.62-6-3C925.61,516.01,924.02,516.93,927,515z"/>
<path class="st0" d="M919,520c2.33,0.33,4.67,0.67,7,1c-0.67,0-1.33,0-2,0C920.93,522.14,921.17,522.03,919,520z"/>
<path class="st0" d="M989,524c1.02,3.17,0.84,3.6-1,6c0,0.67,0,1.33,0,2c-1.33-0.33-2.67-0.67-4-1c-0.33-1-0.67-2-1-3
	c0.33-0.33,0.67-0.67,1-1c3.01,1.23,1.83,1.3,5,1C989,526.67,989,525.33,989,524z"/>
<path class="st0" d="M985,525c0.67,1,1.33,2,2,3C986.33,527,985.67,526,985,525z"/>
<path class="st0" d="M955,529c0,1.67,0,3.33,0,5C955,532.33,955,530.67,955,529z"/>
<path class="st0" d="M992,529c0.67,0,1.33,0,2,0C993.33,529,992.67,529,992,529z"/>
<path class="st0" d="M951,530c0.33,0.67,0.67,1.33,1,2C951.67,531.33,951.33,530.67,951,530z"/>
<path class="st0" d="M990,530c0.67,0,1.33,0,2,0C991.33,530,990.67,530,990,530z"/>
<path class="st0" d="M949,532c1.33,0,2.67,0,4,0c0.43,2.79-0.62,0.94,2,2c-0.33,1-0.67,2-1,3c-1.33,0-2.67,0-4,0
	C949.67,535.33,949.33,533.67,949,532z"/>
<path class="st0" d="M958,534c-0.71,0.94,0.16,1.56-2,1C956.67,534.67,957.33,534.33,958,534z"/>
<path class="st0" d="M831,563c1,0,2,0,3,0c0.67,0.67,1.33,1.33,2,2c-3,6.33-6,12.67-9,19c8.33-0.67,16.67-1.33,25-2
	c0-0.33,0-0.67,0-1c-1-1-2-2-3-3c-1.33-0.67-2.67-1.33-4-2c0-0.33,0-0.67,0-1c0.67-0.33,1.33-0.67,2-1c7.3,1.97,12.67,8.02,16,14
	c-0.67,1-1.33,2-2,3c-1.33-1-2.67-2-4-3c-0.67-1-1.33-2-2-3c-10.02,0.78-41.13,8.55-45,0c5.98,0.21,10.57-0.31,14-2
	C826.33,576.33,828.67,569.67,831,563z"/>
<path class="st0" d="M1064,580c2.33,0,4.67,0,7,0c0,1,0,2,0,3c-2.33,0-4.67,0-7,0c0.33,5,0.67,10,1,15c2.33-1,4.67-2,7-3
	c0,1,0,2,0,3c-6.67,2.33-13.33,4.67-20,7c0-1,0-2,0-3c2.67-0.67,5.33-1.33,8-2c0-5.67,0-11.33,0-17c-5.41-0.13-4.99,0.65-7-3
	c2.33,0,4.67,0,7,0c-0.43-6.73-0.29-11.69,4-14C1064,570.67,1064,575.33,1064,580z"/>
<path class="st0" d="M1019,571c-4.5-4.42-9.72-1.73-13-8c-1.6,1.97-1.36,1.37-2,5c-8.29,0.03-7.35-1.07-11-5
	c-0.33,1.67-0.67,3.33-1,5c-4,0.33-8,0.67-12,1c0,5,0,10,0,15c12.67,0.33,25.33,0.67,38,1C1019.67,581.77,1021.06,575.37,1019,571z
	 M992,583c-3,0-6,0-9,0c-0.33-2-0.67-4-1-6c3.33,0,6.67,0,10,0C992,579,992,581,992,583z M992,576c-3.33,0-6.67,0-10,0
	c0-1.33,0-2.67,0-4c3.33-0.67,6.67-1.33,10-2C992,572,992,574,992,576z M1004,584c-3,0-6,0-9,0c0-2.33,0-4.67,0-7c3,0,6,0,9,0
	C1004,579.33,1004,581.67,1004,584z M1004,576c-3,0-6,0-9,0c0-2,0-4,0-6c3,0,6,0,9,0C1004,572,1004,574,1004,576z M1016,583
	c-3,0.33-6,0.67-9,1c0-2.33,0-4.67,0-7c3.33,0,6.67,0,10,0C1016.67,579,1016.33,581,1016,583z M1017,576c-3.33,0-6.67,0-10,0
	c0-2,0-4,0-6c2.67,0,5.33,0,8,0c0.67,1,1.33,2,2,3C1017,574,1017,575,1017,576z"/>
<path class="st0" d="M1081,566c-1,0.67-2,1.33-3,2c0,5.67,0,11.33,0,17c7,0.33,14,0.67,21,1c0.67-1,1.33-2,2-3
	c0.33-4.67,0.67-9.33,1-14C1096.91,566.23,1089.79,565.66,1081,566z M1098,583c-5,0.33-10,0.67-15,1c-0.67-1-1.33-2-2-3
	c-0.33-1.33-0.67-2.67-1-4c6.33,0,12.67,0,19,0C1098.67,579,1098.33,581,1098,583z M1099,575c-5.18,0.54-22.18,1.88-18-4
	c1.49-1.65,3.03-1.85,5-3c4,0.33,8,0.67,12,1c0.33,1,0.67,2,1,3C1099,573,1099,574,1099,575z"/>
<path class="st0" d="M980,604c14.67,0.33,29.33,0.67,44,1c0,0.33,0,0.67,0,1c-6.67,0-13.33,0-20,0c4.73,9.55,7.18,6.64,17,4
	c0,0.33,0,0.67,0,1c-2.67,1.33-5.33,2.67-8,4c0,0.33,0,0.67,0,1c4.67,1.33,9.33,2.67,14,4c0,0.33,0,0.67,0,1c-2,0-4,0-6,0
	c-10.69-4.4-14.88-14.17-27-15c0,3.33,0,6.67,0,10c3,0,6,0,9,0c0,0.33,0,0.67,0,1c-7.33,1.33-14.67,2.67-22,4c0-1,0-2,0-3
	c3.33-0.33,6.67-0.67,10-1c0-3.67,0-7.33,0-11c-4,0-8,0-12,0c-0.46,7.41-2.66,12.24-9,14c1.3-5.12,6.93-26.84,10-29
	c14.67,0,29.33,0,44,0c0,0.33,0,0.67,0,1c-14.33,0.33-28.67,0.67-43,1C980.67,596.67,980.33,600.33,980,604z"/>
<path class="st0" d="M1072,591c12.67,0.33,25.33,0.67,38,1c0,0.67,0,1.33,0,2c-8.33,0-16.67,0-25,0c-1,1.67-2,3.33-3,5
	c0,0.33,0,0.67,0,1c7.88-0.38,20.76-1.72,24,3c2.85,6.02-0.59,14.64-5,17c-2.33,0.67-4.67,1.33-7,2c-3.04-4.14-1.37-3.95-5-3
	c-2.67,1-5.33,2-8,3c0.33-1,0.67-2,1-3c7.55-3.02,10.64-8.87,14-16c0-0.33,0-0.67,0-1c-2.33,0-4.67,0-7,0c-3.02,7.74-9,13.19-16,17
	c-1,0-2,0-3,0c0.33-1,0.67-2,1-3c7.15-2.38,11.34-7.17,15-13c0-0.33,0-0.67,0-1c-2,0-4,0-6,0c-4.75,3.7-8.67,8.76-15,8
	c0.33-0.67,0.67-1.33,1-2c7.48-2.5,12.16-7.88,16-14c-3.67-0.33-7.33-0.67-11-1C1071.33,592.33,1071.67,591.67,1072,591z"/>
<path class="st0" d="M987,597c10.33,0.67,20.67,1.33,31,2C1011.9,599.12,985.46,599.22,987,597z"/>
<path class="st0" d="M854,601c-0.33-1-0.67-2-1-3c-10.67-0.33-21.33-0.67-32-1c-4.42,5.04-5.02,13.74-2,21c10.67,0,21.33,0,32,0
	C855.05,615.62,856.91,606.65,854,601z M851,613c-1,0.67-2,1.33-3,2c-8,0-16,0-24,0c-4.38-3.07-3.62-10.73-1-15c8.67,0,17.33,0,26,0
	C850.61,603.27,851.18,607.24,851,613z"/>
<path class="st0" d="M862,654c4,0,8,0,12,0c0,1,0,2,0,3c-1.67-0.67-3.33-1.33-5-2c0.33,4,0.67,8,1,12c-1.67-0.33-3.33-0.67-5-1
	c2.34-2.31,2.23-6.02,2-11C861.91,655.27,864.41,658.17,862,654z"/>
<path class="st0" d="M897,654c1.33,0,2.67,0,4,0c0,4.33,0,8.67,0,13c-1.33,0-2.67,0-4,0C897,662.67,897,658.33,897,654z"/>
<path class="st0" d="M908,654c4,0,8,0,12,0c-0.33,0.67-0.67,1.33-1,2c-1.67,0-3.33,0-5,0c-0.08,5.3,0.53,8.02,2,11
	c-1.67,0-3.33,0-5,0c2.43-6.49,3.4-11.47-3-11C908,655.33,908,654.67,908,654z"/>
<path class="st0" d="M926,654c1.33,0,2.67,0,4,0c-2.55,7.79-0.27,9.98,5,13c-1.67-0.33-3.33-0.67-5-1c-0.67-0.67-1.33-1.33-2-2
	C927.33,660.67,926.67,657.33,926,654z"/>
<path class="st0" d="M935,654c1.33,0,2.67,0,4,0c-0.33,1.67-0.67,3.33-1,5c-0.33,0-0.67,0-1,0C936.33,657.33,935.67,655.67,935,654z
	"/>
<path class="st0" d="M957,667c-4,0-8,0-12,0c2.28-4.33,2.23-8.67,0-13c6,1.83,6.97,5.5,11,9c-0.33-3-0.67-6-1-9c1.33,0,2.67,0,4,0
	C957.38,657.3,956.89,661.22,957,667z"/>
<path class="st0" d="M970,654c1.67,0.33,3.33,0.67,5,1C973.33,654.67,971.67,654.33,970,654z"/>
<path class="st0" d="M993,654c4.55-0.03,5.89-0.13,8,2c-1.67,0-3.33,0-5,0c0,1.33,0,2.67,0,4c4.01,0.58,2.99-0.05,5,2
	c-1.67-0.33-3.33-0.67-5-1c0.67,2,1.33,4,2,6c-1.67,0-3.33,0-5,0C993,662.67,993,658.33,993,654z"/>
<path class="st0" d="M1025,654c2,0,4,0,6,0c0,0.33,0,0.67,0,1c-3.14,2.06-2.07,0.48-3,5c4.53-1.92,3.61-0.65,3-5
	c3.52,2.87,2.19,6.99,5,12c-2.67-2-5.33-4-8-6c0.67,2,1.33,4,2,6c-1.67,0-3.33,0-5,0C1026.83,661.93,1026.86,658.84,1025,654z"/>
<path class="st0" d="M1043,654c4.31,2.31,4.85,5.77,8,9c0-0.67,0-1.33,0-2c2.23-2.88,2.63-5.03,6-7c-1.44,4.64-0.81,9.47,1,13
	c-1.33,0-2.67,0-4,0c-0.33-1.67-0.67-3.33-1-5c-1,1.67-2,3.33-3,5c-0.33,0-0.67,0-1,0C1047,662.67,1045,658.33,1043,654z"/>
<path class="st0" d="M886,662c-1.67-0.33-3.33-0.67-5-1c1-2,2-4,3-6c0.33,0,0.67,0,1,0c1.67,4,3.33,8,5,12c-1.33,0-2.67,0-4,0
	C886,665.33,886,663.67,886,662z"/>
<path class="st0" d="M977,667c-7.89,0.58-12.88-2.18-11-8c1.33-1.33,2.67-2.67,4-4c-1,2-2,4-3,6c1,1.67,2,3.33,3,5
	c1.67,0,3.33,0,5,0c-0.67-1.67-1.33-3.33-2-5c1.33,0,2.67,0,4,0C977,663,977,665,977,667z"/>
<path class="st0" d="M975,655c0.67,0.67,1.33,1.33,2,2C976.33,656.33,975.67,655.67,975,655z"/>
<path class="st0" d="M1012,659c0.33,0.67,0.67,1.33,1,2c-0.67,0-1.33,0-2,0C1011.33,660.33,1011.67,659.67,1012,659z"/>
<path class="st0" d="M1044,660c0.67,2.33,1.33,4.67,2,7c-1.33,0-2.67,0-4,0C1042.67,664.67,1043.33,662.33,1044,660z"/>
<path class="st0" d="M936,661c0,1.33,0,2.67,0,4C936,663.67,936,662.33,936,661z"/>
<path class="st0" d="M880,662c0.67,1.67,1.33,3.33,2,5c-1.33,0-2.67,0-4,0C878.67,665.33,879.33,663.67,880,662z"/>
<path class="st0" d="M1011,662c1,0,2,0,3,0c-0.64,3.63-0.4,3.03-2,5C1010.22,664.39,1010.4,665.39,1011,662z"/>
<path class="st0" d="M922,603c-0.67-0.33-1.33-0.67-2-1c5-0.33,10-0.67,15-1c2.21-4.42,2.79-14.27,1-20c-5.33-0.33-10.67-0.67-16-1
	c-0.33-2.33-0.67-4.67-1-7c8,0,16,0,24,0c0-0.33,0-0.67,0-1c-4.14-3.16-15.68-2.33-23-2c-0.33-1.67-0.67-3.33-1-5c0-0.67,0-1.33,0-2
	c-1,0-2,0-3,0c0,2.33,0,4.67,0,7c-7.54-0.29-19.68-1.28-24,2c0,0.33,0,0.67,0,1c8,0,16,0,24,0c0,2.33,0,4.67,0,7c-5,0-10,0-15,0
	c-2.97,5.35-3.26,12.41-2,20c5.59,1.35,8.72,1.63,15,1c0,0.33,0,0.67,0,1c-5.44,6.68-15.38,11.68-25,14c0,1,0,2,0,3
	c11.11-1.75,17.77-8.34,26-13c0,4.67,0,9.33,0,14c1.33,0.33,2.67,0.67,4,1c0-5.33,0-10.67,0-16c8.01,5.41,15.12,12.69,27,14
	c0.33-0.67,0.67-1.33,1-2C939.74,610.72,928.36,610.17,922,603z M914.78,598.18c0,0-7.16,1.73-10.99-0.12L902,592l13.15,0.49
	L914.78,598.18z M916,590c-4.67,0-9.33,0-14,0c0-1.67,0-3.33,0-5c0-0.33,0-0.67,0-1c3.43-1.69,8.02-2.21,14-2
	C916,584.67,916,587.33,916,590z M931,583c3.23,2.18,2.73,1.71,3,7c-4.67,0-9.33,0-14,0c-0.33-2.67-0.67-5.33-1-8
	C923,582.33,927,582.67,931,583z M919,592c5,0,10,0,15,0c0,1.67,0,3.33,0,5c-3.6,1.76-8.79,2.23-15,2C919,596.67,919,594.33,919,592
	z"/>
</svg>
