<svg id="Layer_1" data-name="Layer 1" xmlns="http://www.w3.org/2000/svg" viewBox="0 0 300 253.08"><defs><style>.cls-1{fill:#fff;fill-rule:evenodd;}</style></defs><title>tlogo</title><path class="cls-1" d="M971.39,413.28c1,3.17.84,3.59-1,6v2h-4l-1-5c2.49-1.2,1,.63,2-2l2,3-1,2,3-2Z" transform="translate(-810.39 -413.28)"/><path class="cls-1" d="M949.39,417.28c1,3.87-.17,5.41-3,8Z" transform="translate(-810.39 -413.28)"/><path class="cls-1" d="M943.39,418.28c3.6,3.47.79,5.6,5,9l8-5-2,5c-8.29,2.21-12.43,5-14-4C942.23,421.67,942.31,420.69,943.39,418.28Z" transform="translate(-810.39 -413.28)"/><path class="cls-1" d="M974.39,418.28c-.71.94.16,1.56-2,1Z" transform="translate(-810.39 -413.28)"/><path class="cls-1" d="M977.39,425.28l1,20,3-2,3-15h1l-1,12h1l9-7c-2.36,7.55-8.55,8.75-13,14,1.08,8.22,7.49,24.78,3,31-1.13-25.82-11.15-27.3-24-40,.4-4,.32-3.92,2-6v2c2.75,5.31,2.91,7.05,8,10l-3-11,2-2h1l1,2c-1.49,5.35-.61,7.15,3,10l2-1C975.6,435.89,975.26,430.27,977.39,425.28Z" transform="translate(-810.39 -413.28)"/><path class="cls-1" d="M991.39,426.28c.74,3.05.27,4.51-2,7v-3Z" transform="translate(-810.39 -413.28)"/><path class="cls-1" d="M930.39,428.28v5h-1Z" transform="translate(-810.39 -413.28)"/><path class="cls-1" d="M921.39,429.28l3,11h1l1-10c3.72,2.72.11,4.31,6,2-5.07,15-4.44,10.1-1,28h-1v-2l-4-12c-4.26-6.51-11.58-2.09-14-12h1v2l5,4-1-7h1c.48,5,.46,4.57,3,7h1Z" transform="translate(-810.39 -413.28)"/><path class="cls-1" d="M947.39,431.28l7,4C950.05,434.34,949.69,433.91,947.39,431.28Z" transform="translate(-810.39 -413.28)"/><path class="cls-1" d="M1004.39,439.28l4,5-1,3-4-1Z" transform="translate(-810.39 -413.28)"/><path class="cls-1" d="M1008.39,439.28h2l-1,4h-1Z" transform="translate(-810.39 -413.28)"/><path class="cls-1" d="M952.39,444.28l5,3c-.85,16.72,1.37,24.16,14,29v1c-8.24-2.52-13.69-13.36-20-13-2.93.39-8.21,4.33-12,1l6-1-2-1-4-5,13,3v-2l-11-7,12,5v-3l-5-6,8,5Z" transform="translate(-810.39 -413.28)"/><path class="cls-1" d="M1010.39,444.28h0Z" transform="translate(-810.39 -413.28)"/><path class="cls-1" d="M906.39,449.28c1.52,2.28,1.82,1.21,1,4l-3,8c-5-1.37-4.73-2.31-7-6,3.75-2.66,3,.83,3-5l3,5-1,2,4-2v-6Z" transform="translate(-810.39 -413.28)"/><path class="cls-1" d="M1009.39,456.28h3c-.29,8.91-3.19,10.14-5,17l-7-3c.08-3.62-.79-3.45-2-8h1l5,3-2-8,3,2,2,7,3-2Z" transform="translate(-810.39 -413.28)"/><path class="cls-1" d="M909.39,457.28h3l-1,2h-4Z" transform="translate(-810.39 -413.28)"/><path class="cls-1" d="M935.39,461.28l5,1v1C936.38,462.7,937.4,463.32,935.39,461.28Z" transform="translate(-810.39 -413.28)"/><path class="cls-1" d="M909.39,466.28h3c-.94,6.35-1.24,9.24,4,12-1.49-5.7.71-8.9,4-10-1.56,3.19-2.85,4.84-2,8,2.27-1.62,1.76-1.82,5-3l-3,10-6,1C912.76,477.06,909.9,475.27,909.39,466.28Z" transform="translate(-810.39 -413.28)"/><path class="cls-1" d="M1016.39,466.28h3v2h-5Z" transform="translate(-810.39 -413.28)"/><path class="cls-1" d="M1010.39,476.28h2l-1,5h-1Z" transform="translate(-810.39 -413.28)"/><path class="cls-1" d="M903.39,477.28l7,4C906.32,480.36,905.34,480.39,903.39,477.28Z" transform="translate(-810.39 -413.28)"/><path class="cls-1" d="M1014.39,478.28l2,3,4-3-4,8c5.1-2.63,4.59-2.64,6-2,4,1.44.62.08,3,3-9.34-.3-7.69.1-12,6,.67-6.24-.22-6.81-2-12Z" transform="translate(-810.39 -413.28)"/><path class="cls-1" d="M935.39,479.28l6,6,3,12-7,2c-2-2.91-4.47-2.9-7-5l1-1,9,1v-7Z" transform="translate(-810.39 -413.28)"/><path class="cls-1" d="M948.39,482.28c2.06,2,1,.37,2,4l-3,4h-1Z" transform="translate(-810.39 -413.28)"/><path class="cls-1" d="M995.39,482.28h2c-3.4,15.65-15.66,38.22-27,47C975.25,513.77,989.72,500,995.39,482.28Z" transform="translate(-810.39 -413.28)"/><path class="cls-1" d="M989.39,484.28h2l-3,10c-2.67-2.18-2.8-2-4-6C989,487.7,987.48,489.6,989.39,484.28Z" transform="translate(-810.39 -413.28)"/><path class="cls-1" d="M900.39,485.28v0Z" transform="translate(-810.39 -413.28)"/><path class="cls-1" d="M896.39,486.28c1.5,2.65,1.45,2,1,5l3-2-1,4h-4l-1-5C896.89,487.08,895.37,488.91,896.39,486.28Z" transform="translate(-810.39 -413.28)"/><path class="cls-1" d="M999.39,486.28h2l-4,5Z" transform="translate(-810.39 -413.28)"/><path class="cls-1" d="M929.39,487.28c5.42.44,6.32,1.16,9,4l-9-2Z" transform="translate(-810.39 -413.28)"/><path class="cls-1" d="M961.39,489.28l2,4-2-1Z" transform="translate(-810.39 -413.28)"/><path class="cls-1" d="M969.39,490.28c2,3.6,1.2,4.28,0,9l4-1c3.43,1.15,1.7-.4,6-3v1l-1,3c-7.7,3.32-10.26,4.92-15,11l3-9c-2.34-3.13-5.71-4.66-5-8,4.38.51.53,1,5-2-.06,4.73.13,6.66,2,9Z" transform="translate(-810.39 -413.28)"/><path class="cls-1" d="M901.39,491.28h0Z" transform="translate(-810.39 -413.28)"/><path class="cls-1" d="M1002.39,491.28c0,1.74,0,1.6-1,4l-4-1h2Z" transform="translate(-810.39 -413.28)"/><path class="cls-1" d="M1012.39,493.28l1,2Z" transform="translate(-810.39 -413.28)"/><path class="cls-1" d="M973.39,494.28h2l-1,4h-1Z" transform="translate(-810.39 -413.28)"/><path class="cls-1" d="M915.39,495.28c5.06,3.31,2.07,2.58,8,2v3c-1.45,2.89-1.59,3-2,5,8.16,3.16,27.22,11.67,34,18-15.78-2.24-39.3-15.07-47-26l9,4v-1C915.71,497.29,915.71,497.87,915.39,495.28Z" transform="translate(-810.39 -413.28)"/><path class="cls-1" d="M1011.39,495.28l1,2Z" transform="translate(-810.39 -413.28)"/><path class="cls-1" d="M907.39,502.28l6,2v1h-4Z" transform="translate(-810.39 -413.28)"/><path class="cls-1" d="M949.39,503.28h2l-1,3Z" transform="translate(-810.39 -413.28)"/><path class="cls-1" d="M945.39,504.28c2.06,2,1,.37,2,4l3-2c-1.39,4.5-.52,3.59-5,5l-1-5C946.16,504.91,945.61,506.5,945.39,504.28Z" transform="translate(-810.39 -413.28)"/><path class="cls-1" d="M994.39,504.28c1.82,2.82,1.22,1,1,5l5-1-1,2h-6l2,4h7l-3,2-11-4,1-5C993,506.22,992.33,506.46,994.39,504.28Z" transform="translate(-810.39 -413.28)"/><path class="cls-1" d="M908.39,508.28h6v1h-2C909.67,510.58,910.46,509.72,908.39,508.28Z" transform="translate(-810.39 -413.28)"/><path class="cls-1" d="M952.39,508.28h0Z" transform="translate(-810.39 -413.28)"/><path class="cls-1" d="M962.39,510.28v7h-1Z" transform="translate(-810.39 -413.28)"/><path class="cls-1" d="M927.39,514.28l4,4c-2.74,4.39-4,7.49-10,9v-2c4-1.15,3.82-1.38,6-4v-3c-3.88-.76-4-.62-6-3C926,515.28,924.4,516.2,927.39,514.28Z" transform="translate(-810.39 -413.28)"/><path class="cls-1" d="M919.39,519.28l7,1h-2C921.32,521.41,921.55,521.3,919.39,519.28Z" transform="translate(-810.39 -413.28)"/><path class="cls-1" d="M989.39,523.28c1,3.17.84,3.59-1,6v2l-4-1-1-3,1-1c3,1.23,1.83,1.3,5,1Z" transform="translate(-810.39 -413.28)"/><path class="cls-1" d="M985.39,524.28l2,3Z" transform="translate(-810.39 -413.28)"/><path class="cls-1" d="M955.39,528.28v0Z" transform="translate(-810.39 -413.28)"/><path class="cls-1" d="M992.39,528.28h0Z" transform="translate(-810.39 -413.28)"/><path class="cls-1" d="M951.39,529.28l1,2Z" transform="translate(-810.39 -413.28)"/><path class="cls-1" d="M990.39,529.28h0Z" transform="translate(-810.39 -413.28)"/><path class="cls-1" d="M949.39,531.28h4c.43,2.79-.63.94,2,2l-1,3h-4Z" transform="translate(-810.39 -413.28)"/><path class="cls-1" d="M958.39,533.28c-.71.94.16,1.56-2,1Z" transform="translate(-810.39 -413.28)"/><path class="cls-1" d="M831.39,562.28h3l2,2-9,19,25-2v-1l-3-3-4-2v-1l2-1c7.29,2,12.67,8,16,14l-2,3-4-3-2-3c-10,.77-41.14,8.54-45,0,6,.2,10.57-.32,14-2Z" transform="translate(-810.39 -413.28)"/><path class="cls-1" d="M1064.39,579.28h7v3h-7l1,15,7-3v3l-20,7v-3l8-2v-17c-5.41-.13-5,.65-7-3h7c-.44-6.74-.3-11.7,4-14Z" transform="translate(-810.39 -413.28)"/><path class="cls-1" d="M1019.39,570.28c-4.5-4.43-9.72-1.74-13-8-1.6,2-1.36,1.36-2,5-8.29,0-7.35-1.07-11-5-.34,1.66-.67,3.33-1,5l-12,1v15l38,1C1020.06,581.05,1021.44,574.64,1019.39,570.28Zm-27,12h-9c-.34-2-.67-4-1-6h10Zm0-7h-10v-4l10-2Zm12,8h-9v-7h9Zm0-8h-9v-6h9Zm12,7-9,1v-7h10C1017.05,578.27,1016.72,580.28,1016.39,582.28Zm1-7h-10v-6h8l2,3Z" transform="translate(-810.39 -413.28)"/><path class="cls-1" d="M1081.39,565.28l-3,2v17l21,1c.66-1,1.33-2,2-3q.49-7,1-14C1097.29,565.5,1090.17,564.94,1081.39,565.28Zm17,17-15,1-2-3c-.34-1.34-.67-2.67-1-4h19C1099.05,578.27,1098.72,580.28,1098.39,582.28Zm1-8c-5.18.53-22.18,1.88-18-4,1.49-1.66,3-1.85,5-3l12,1c.33,1,.66,2,1,3Z" transform="translate(-810.39 -413.28)"/><path class="cls-1" d="M980.39,603.28l44,1v1h-20c4.73,9.54,7.18,6.64,17,4v1l-8,4v1l14,4v1h-6c-10.69-4.4-14.88-14.17-27-15v10h9v1l-22,4v-3l10-1v-11h-12c-.46,7.41-2.66,12.23-9,14,1.3-5.12,6.93-26.85,10-29h44v1l-43,1Z" transform="translate(-810.39 -413.28)"/><path class="cls-1" d="M1072.39,590.28l38,1v2h-25l-3,5v1c7.87-.38,20.75-1.73,24,3,2.84,6-.59,14.63-5,17l-7,2c-3-4.14-1.38-3.95-5-3l-8,3,1-3c7.54-3,10.64-8.87,14-16v-1h-7c-3,7.74-9,13.19-16,17h-3l1-3c7.15-2.38,11.34-7.17,15-13v-1h-6c-4.75,3.69-8.67,8.75-15,8l1-2c7.48-2.51,12.16-7.88,16-14l-11-1Z" transform="translate(-810.39 -413.28)"/><path class="cls-1" d="M987.39,596.28l31,2C1012.29,598.4,985.85,598.49,987.39,596.28Z" transform="translate(-810.39 -413.28)"/><path class="cls-1" d="M854.39,600.28c-.34-1-.67-2-1-3l-32-1c-4.43,5-5,13.73-2,21h32C855.43,614.89,857.3,605.93,854.39,600.28Zm-3,12-3,2h-24c-4.38-3.07-3.62-10.73-1-15h26C851,602.55,851.57,606.52,851.39,612.28Z" transform="translate(-810.39 -413.28)"/><path class="cls-1" d="M862.39,653.28h12v3l-5-2,1,12-5-1c2.34-2.32,2.23-6,2-11C862.3,654.55,864.79,657.45,862.39,653.28Z" transform="translate(-810.39 -413.28)"/><path class="cls-1" d="M897.39,653.28h4v13h-4Z" transform="translate(-810.39 -413.28)"/><path class="cls-1" d="M908.39,653.28h12l-1,2h-5c-.09,5.3.52,8,2,11h-5c2.43-6.49,3.4-11.48-3-11Z" transform="translate(-810.39 -413.28)"/><path class="cls-1" d="M926.39,653.28h4c-2.56,7.79-.28,10,5,13l-5-1-2-2Z" transform="translate(-810.39 -413.28)"/><path class="cls-1" d="M935.39,653.28h4l-1,5h-1Z" transform="translate(-810.39 -413.28)"/><path class="cls-1" d="M957.39,666.28h-12a13.36,13.36,0,0,0,0-13c6,1.82,7,5.49,11,9l-1-9h4C957.77,656.58,957.28,660.5,957.39,666.28Z" transform="translate(-810.39 -413.28)"/><path class="cls-1" d="M970.39,653.28l5,1Z" transform="translate(-810.39 -413.28)"/><path class="cls-1" d="M993.39,653.28c4.55,0,5.89-.14,8,2h-5v4c4,.57,3,0,5,2l-5-1,2,6h-5Z" transform="translate(-810.39 -413.28)"/><path class="cls-1" d="M1025.39,653.28h6v1c-3.14,2.05-2.07.47-3,5,4.53-1.93,3.6-.65,3-5,3.52,2.86,2.18,7,5,12l-8-6,2,6h-5C1027.22,661.21,1027.25,658.11,1025.39,653.28Z" transform="translate(-810.39 -413.28)"/><path class="cls-1" d="M1043.39,653.28c4.31,2.3,4.85,5.77,8,9v-2c2.23-2.89,2.63-5,6-7a17.59,17.59,0,0,0,1,13h-4l-1-5-3,5h-1Z" transform="translate(-810.39 -413.28)"/><path class="cls-1" d="M886.39,661.28l-5-1,3-6h1l5,12h-4Z" transform="translate(-810.39 -413.28)"/><path class="cls-1" d="M977.39,666.28c-7.89.57-12.89-2.18-11-8l4-4-3,6,3,5h5l-2-5h4Z" transform="translate(-810.39 -413.28)"/><path class="cls-1" d="M975.39,654.28l2,2Z" transform="translate(-810.39 -413.28)"/><path class="cls-1" d="M1012.39,658.28l1,2h-2Z" transform="translate(-810.39 -413.28)"/><path class="cls-1" d="M1044.39,659.28l2,7h-4Z" transform="translate(-810.39 -413.28)"/><path class="cls-1" d="M936.39,660.28v0Z" transform="translate(-810.39 -413.28)"/><path class="cls-1" d="M880.39,661.28l2,5h-4Z" transform="translate(-810.39 -413.28)"/><path class="cls-1" d="M1011.39,661.28h3c-.65,3.63-.41,3-2,5C1010.6,663.67,1010.79,664.66,1011.39,661.28Z" transform="translate(-810.39 -413.28)"/><path class="cls-1" d="M922.39,602.28l-2-1,15-1c2.21-4.43,2.79-14.27,1-20l-16-1q-.51-3.51-1-7h24v-1c-4.14-3.16-15.68-2.34-23-2-.34-1.67-.67-3.34-1-5v-2h-3v7c-7.55-.3-19.68-1.28-24,2v1h24v7h-15c-3,5.35-3.26,12.4-2,20a38,38,0,0,0,15,1v1c-5.44,6.68-15.38,11.68-25,14v3c11.11-1.76,17.77-8.34,26-13v14l4,1v-16c8,5.4,15.12,12.69,27,14l1-2C940.13,610,928.75,609.44,922.39,602.28Zm-7.22-4.83s-7.17,1.73-11-.12l-1.78-6.05,13.15.49Zm1.22-8.17h-14v-6c3.43-1.69,8-2.21,14-2Zm15-7c3.23,2.17,2.73,1.71,3,7h-14q-.51-4-1-8Zm-12,9h15v5c-3.6,1.76-8.79,2.22-15,2Z" transform="translate(-810.39 -413.28)"/></svg>