<svg id="Page-1" xmlns="http://www.w3.org/2000/svg" width="210.937" height="131.309" viewBox="0 0 210.937 131.309">
  <defs>
    <style>
      .cls-1 {
        fill: #1d91ce;
      }

      .cls-1, .cls-2 {
        fill-rule: evenodd;
      }

      .cls-2 {
        fill: #fff;
      }
    </style>
  </defs>
  <g id="amex" transform="translate(0 0)">
    <g id="card" transform="translate(0 0)">
      <path id="shape" class="cls-1" d="M184.694,131.308H17.725A16.586,16.586,0,0,1,1,114.86V16.448A16.586,16.586,0,0,1,17.725,0H184.694a16.586,16.586,0,0,1,16.725,16.448v98.48A16.586,16.586,0,0,1,184.694,131.308Z" transform="translate(3.423 0)"/>
      <path id="shape-2" data-name="shape" class="cls-2" d="M32.862,46.747,29.6,54.376H.36L23.436,6H78.551l5.563,10.684L89.311,6h74.307l6.351,6.641L176.79,6H211.3L186.8,30.133,210.24,54.376H176.846l-7.471-7.125-7.409,7.125H42.766l-3.587-7.63" transform="translate(-0.36 35.466)"/>
      <path id="shape-3" data-name="shape" class="cls-1" d="M27.969,41.347h0ZM98.6,7H84.086L73.167,30.152,61.418,7H46.9V40.518L31.908,7H18.293L2.26,41.554h9.814l3.248-7.878h18.66l3.732,7.878H55.751V13.427L68.536,41.554h8.431L89.684,13.911V41.554H98.6Zm59.918,11.2L148.151,7h-41.6V41.554h40.222l11.4-11.334,11.472,11.334h10.712L163.977,24.07,180.84,7h-11.2ZM136.609,34.644H115.462v-7.6h21.148V20.131H115.462v-6.22h21.148V8.037L152.3,23.724,136.609,39.481ZM24.859,12.667,30.941,26.7H18.293l6.565-14.029Z" transform="translate(10.871 41.377)"/>
    </g>
  </g>
</svg>
