<svg id="Page-1" xmlns="http://www.w3.org/2000/svg" width="200.418" height="131.309" viewBox="0 0 200.418 131.309">
  <defs>
    <style>
      .cls-1 {
        fill: #f6f9fc;
      }

      .cls-1, .cls-2, .cls-3 {
        fill-rule: evenodd;
      }

      .cls-2 {
        fill: #f99f1b;
      }

      .cls-3 {
        fill: #2d4990;
      }
    </style>
  </defs>
  <g id="visa" transform="translate(0 0)">
    <g id="card">
      <path id="shape" class="cls-1" d="M183.694,131.308H16.725A16.586,16.586,0,0,1,0,114.86V16.448A16.586,16.586,0,0,1,16.725,0H183.694a16.586,16.586,0,0,1,16.725,16.448v98.48A16.586,16.586,0,0,1,183.694,131.308Z" transform="translate(0 0)"/>
      <path id="shape-2" data-name="shape" class="cls-2" d="M0,16v4.354A16.586,16.586,0,0,0,16.725,36.733H183.694a16.586,16.586,0,0,0,16.725-16.448V16Z" transform="translate(0 94.575)"/>
      <path id="shape-3" data-name="shape" class="cls-3" d="M0,20.733V16.379A16.586,16.586,0,0,1,16.725,0H183.694a16.586,16.586,0,0,1,16.725,16.448v4.285ZM96.063,42.3,85.834,89.082H73.6L83.692,42.3h12.3Zm51.625,30.27,6.5-17.623,3.732,17.623H147.688ZM161.44,89.151h11.334L162.823,42.3H152.387a5.529,5.529,0,0,0-5.252,3.455L128.682,89.082h12.924l2.557-6.911H159.92l1.52,6.911ZM129.374,73.809c0-12.3-17.347-12.992-17.277-18.521.069-1.659,1.728-3.455,5.252-3.939a23.5,23.5,0,0,1,12.094,2.073l2.142-9.883a33.39,33.39,0,0,0-11.472-2.073c-12.163,0-20.733,6.358-20.733,15.48-.069,6.7,6.082,10.5,10.712,12.716,4.838,2.281,6.427,3.8,6.427,5.805-.069,3.179-3.87,4.561-7.395,4.561a25.2,25.2,0,0,1-12.578-2.9L94.266,87.354c2.9,1.313,8.224,2.419,13.684,2.488C120.873,89.842,129.3,83.622,129.374,73.809ZM78.44,42.3l-19.9,46.856H45.612L35.8,51.832c-.622-2.281-1.175-3.11-2.972-4.147a52.04,52.04,0,0,0-12.094-3.939l.276-1.382H41.95A5.79,5.79,0,0,1,47.617,47.2L52.8,74.224l12.785-31.79H78.44Z" transform="translate(0 0)"/>
    </g>
  </g>
</svg>
