<svg xmlns="http://www.w3.org/2000/svg" width="105.977" height="105.985" viewBox="0 0 105.977 105.985">
  <g id="Group_92" data-name="Group 92" transform="translate(2 2.008)">
    <path id="Path_232" data-name="Path 232" d="M11.285,55.306A50.99,50.99,0,0,1,62.074,4.318V55.093L13.795,71.15A50.953,50.953,0,0,1,11.285,55.306Z" transform="translate(-11.285 -4.318)" fill="#a8a8a8" stroke="#fff" stroke-width="4"/>
    <path id="Path_231" data-name="Path 231" d="M43.624,115.867l16.233-48V16.528a50.989,50.989,0,1,1-16.233,99.339Z" transform="translate(-8.869 -16.528)" fill="#446ebe" stroke="#fff" stroke-width="4"/>
    <path id="Path_233" data-name="Path 233" d="M11.767,80.05,59.711,64.293l-15.585,48.17A51.122,51.122,0,0,1,11.767,80.05Z" transform="translate(-9.209 -13.071)" fill="#ebb31b" stroke="#fff" stroke-width="4"/>
    <path id="Path_238" data-name="Path 238" d="M6.315-7.4c-.056.143-.12.279-.175.406H4.49V-7.4Zm-4.462.12A3.541,3.541,0,0,1,.26-5.331a5.631,5.631,0,0,1,.446.908A4.89,4.89,0,0,0,2.188-5.937c.59.669,1.474.8,2.788.8H7.47a2.394,2.394,0,0,1,.311-.837c-.59.024-2.334.024-2.8.024-.175,0-.335,0-.494-.008v-.4H6.259v-.382l.605.159a9.425,9.425,0,0,0,.669-1.442l-.7-.175-.151.032H.873V-7.4H3.55V-6.04a1.706,1.706,0,0,1-1.028-.526c.072-.159.143-.327.2-.494ZM4.506-2.128v-.566H5.574l-.295.255c.127.088.263.191.4.295ZM2.076-3.387v-.5h1.5v.5Zm3.848-.5v.5H4.506v-.5Zm.964,1.2V-4.582H4.506V-5H3.574v.414H1.184v1.888h2.39v.582C2.387-2.1,1.32-2.1.547-2.1L.6-1.22c1.538-.048,3.808-.135,5.943-.239.231.191.446.374.613.518l.605-.59C7.406-1.826,6.8-2.3,6.251-2.694Zm3.091.167V-4H14v1.474ZM14-6.359v1.418H9.98V-6.359Zm-1.888-.964c.159-.319.311-.669.462-1.028L11.342-8.51a8.331,8.331,0,0,1-.327,1.187h-2v6.27H9.98v-.51H14v.5h1V-7.323Zm6.2.733v.813h.837V-6.59h.765v-.693H17.748c.008-.088.008-.175.008-.255A8.861,8.861,0,0,0,19.811-7.9l-.526-.55a10.215,10.215,0,0,1-2.342.359v.534A1.7,1.7,0,0,1,16.25-6.08a3.394,3.394,0,0,1,.613.605A2.317,2.317,0,0,0,17.62-6.59ZM21.6-4.7h-3.29V-5.06H21.6Zm0,.892h-3.29v-.366H21.6Zm0,.892h-3.29v-.359H21.6Zm.821-2.836V-6.59H23.54v-.693H20.982c.008-.08.008-.159.008-.239v-.04a9.626,9.626,0,0,0,2.255-.382l-.59-.526a10.407,10.407,0,0,1-2.462.351v.582a1.863,1.863,0,0,1-.574,1.49,3.951,3.951,0,0,1,.629.422H17.4v3.282h1.052a12.754,12.754,0,0,1-2.055.558,6.435,6.435,0,0,1,.454.8,14.424,14.424,0,0,0,2.565-1.052l-.518-.3h2.063l-.287.462a22.683,22.683,0,0,1,2.4.884l.438-.661c-.5-.2-1.259-.462-2.008-.685h1.052V-5.626h-2.2a2.17,2.17,0,0,0,.526-.964h.685v.837Z" transform="translate(63.683 50.328)" fill="#fff"/>
    <path id="Path_234" data-name="Path 234" d="M7.474-8.241H6.582v.98H5.833V-8.472H5v1.211H4.255v-.98H3.411V-6.5H7.474ZM2.248-2.832H1.674v-2h.574Zm.7.829V-5.66H1.714a11.95,11.95,0,0,0,.43-1.609h.98v-.86H.415v.86h.852A6.76,6.76,0,0,1,.24-4.584,5.434,5.434,0,0,1,.567-3.453c.112-.135.223-.287.327-.438v2.478h.781V-2Zm2.287-1.49c-.159-.287-.486-.773-.725-1.139l-.359.215v-.924H7.665V-6.13H3.315v1.562a6.034,6.034,0,0,1-.621,3.075,3.432,3.432,0,0,1,.725.47,6.281,6.281,0,0,0,.717-2.908,8.334,8.334,0,0,1,.47.852Zm1.506.351c.279-.263.613-.677.988-1.036l-.7-.5a7.8,7.8,0,0,1-.781,1.139c-.048-.112-.088-.231-.127-.351.04-.351.064-.741.08-1.147H5.379C5.323-3.461,5.2-2.362,3.857-1.732a2.132,2.132,0,0,1,.534.693A2.794,2.794,0,0,0,5.849-2.672,3.776,3.776,0,0,0,7.243-1.087,2.835,2.835,0,0,1,7.8-1.756,3.338,3.338,0,0,1,6.255-3.517Zm3.936-3.426-.175.032H8.494v.956h1.665A5.185,5.185,0,0,1,8.207-2.473a3.335,3.335,0,0,1,.765.733,7.08,7.08,0,0,0,2.326-4.6Zm3.7-.518a12.708,12.708,0,0,1-1.41,1.577,9.05,9.05,0,0,1-.438-1.028V-8.48H11.521v6.222c0,.135-.048.183-.183.183-.151,0-.574,0-1.012-.016a4.136,4.136,0,0,1,.351,1.06,3.219,3.219,0,0,0,1.434-.215c.319-.175.422-.454.422-1V-4.537A6.339,6.339,0,0,0,15.122-1.78a4.268,4.268,0,0,1,.709-.884,5.63,5.63,0,0,1-2.422-2.1c.566-.454,1.259-1.115,1.848-1.7Zm3.848-1.362a8.092,8.092,0,0,1-2.055,2.972,7.7,7.7,0,0,1,.5.988,8.01,8.01,0,0,0,.765-.845v4.294h.9v-5.6a12.326,12.326,0,0,0,.773-1.514Zm2.86,6.39c-.382,0-.438-.08-.438-.55V-5.4h2.773v-.908H20.651V-8.329h-.916v5.7c0,1.084.279,1.4,1.259,1.4h1.33c.964,0,1.2-.55,1.307-2.087a2.375,2.375,0,0,1-.837-.4c-.072,1.315-.135,1.649-.542,1.649Zm8.477-1.474v1.259H26.412V-3.533ZM25.44-1.047h.972V-1.4h3.155v.319h1.012v-3.29H25.44ZM26.69-5.923A9.913,9.913,0,0,0,28-7.062a10.045,10.045,0,0,0,1.386,1.139ZM28-8.52A8.369,8.369,0,0,1,24.2-5.732a3.861,3.861,0,0,1,.693.868,10.766,10.766,0,0,0,1.068-.582v.39h3.983v-.518c.374.215.765.406,1.147.59a2.866,2.866,0,0,1,.653-.868,8.932,8.932,0,0,1-3.155-1.88c.088-.112.175-.231.263-.351Zm7.17,3.553-.733.207V-6.042H35.1v-.9h-.661v-1.53h-.868v1.53H33.2c.048-.319.088-.629.12-.948l-.789-.135a9.959,9.959,0,0,1-.454,2.565,6.932,6.932,0,0,1,.669.438,7.242,7.242,0,0,0,.295-1.02h.534v1.522c-.542.151-1.028.279-1.426.366l.231.9c.366-.1.765-.223,1.2-.351v2.573h.868V-3.867c.295-.088.574-.183.86-.263Zm1.418-2.279c.112-.351.215-.709.295-1.076l-.86-.159a6.594,6.594,0,0,1-1.307,3,5.405,5.405,0,0,1,.717.534,5.932,5.932,0,0,0,.821-1.426h.406A6.18,6.18,0,0,1,34.9-3.413a3.349,3.349,0,0,1,.725.534,8.057,8.057,0,0,0,1.824-3.49h.374a7.618,7.618,0,0,1-2.47,4.589,3.534,3.534,0,0,1,.773.55c1.283-1.06,2.1-3.131,2.494-5.139h.04c-.127,2.86-.271,3.944-.47,4.2a.333.333,0,0,1-.295.151,6.463,6.463,0,0,1-.709-.032,2.648,2.648,0,0,1,.263.924,4.555,4.555,0,0,0,.9-.024.873.873,0,0,0,.621-.414c.3-.4.446-1.7.6-5.25.008-.112.016-.43.016-.43Z" transform="translate(7.918 38.38)" fill="#fff"/>
    <path id="Path_236" data-name="Path 236" d="M1.561-5.873A6.064,6.064,0,0,1,2.1-5.2l.335-.279v.558c-.327.255-.645.486-.908.653.024-.4.032-.781.032-1.123Zm.876-1.458v1.354c-.183-.2-.406-.422-.6-.605l-.279.2v-.948Zm.837-.876H.8v2.82A9.885,9.885,0,0,1,.27-1.6,2.818,2.818,0,0,1,.9-1.109a8.658,8.658,0,0,0,.613-2.82l.279.51c.207-.207.43-.414.645-.637v1.968c0,.112-.032.151-.135.151s-.406,0-.709-.016a3.066,3.066,0,0,1,.239.876,2.211,2.211,0,0,0,1.123-.167c.247-.151.319-.406.319-.829ZM6.652-5.164a4.842,4.842,0,0,0,1-.072c-.032-.215-.064-.55-.1-.8a5.571,5.571,0,0,1-.956.072H4.963c-.335,0-.4-.12-.4-.406v-.438h2.86v-.813H4.564v-.765h-.94V-6.4c0,.9.3,1.235,1.33,1.235ZM6.468-3.953v.518H4.636v-.518ZM4.636-2.129V-2.7H6.468v.574ZM3.744-1.045h.892v-.3H6.468v.271h.94V-4.734H3.744Zm5.872-4.78a6.59,6.59,0,0,1,.462.582l.279-.231v.613c-.279.207-.542.4-.757.558.008-.366.016-.7.016-1.012Zm.741-1.506v1.267c-.159-.175-.351-.359-.51-.518l-.231.167v-.916Zm5.37,1.052v-.908H13.5l.637-.191c-.088-.3-.287-.8-.43-1.171l-.908.239c.127.351.271.8.351,1.123H11.392v.908h1.036c-.04,1.785-.127,3.33-1.2,4.326V-8.207H8.763v2.892a9.977,9.977,0,0,1-.534,3.84,3.6,3.6,0,0,1,.765.438,8.426,8.426,0,0,0,.574-2.8l.231.414.558-.558V-2.1c0,.112-.04.143-.135.143s-.39.008-.677-.008a3.236,3.236,0,0,1,.263.916,2.148,2.148,0,0,0,1.1-.175.681.681,0,0,0,.295-.446,3.147,3.147,0,0,1,.542.653A4.953,4.953,0,0,0,13.32-4.519h1.1a6.745,6.745,0,0,1-.279,2.446.346.346,0,0,1-.287.112c-.159,0-.5,0-.868-.032a2.082,2.082,0,0,1,.279.9,8.165,8.165,0,0,0,1.044-.024.889.889,0,0,0,.653-.366c.239-.295.335-1.2.414-3.529,0-.12.008-.39.008-.39H13.392c.016-.287.024-.574.032-.876Z" transform="translate(19.862 73.441)" fill="#fff"/>
    <text id="_25g" data-name="25g" transform="translate(17.977 49.139)" fill="#f4f8f2" font-size="10" font-family="Arial-BoldMT, Arial" font-weight="700"><tspan x="0" y="0">25g</tspan></text>
    <text id="_10g" data-name="10g" transform="translate(16.977 84.139)" fill="#f4f8f2" font-size="10" font-family="Arial-BoldMT, Arial" font-weight="700"><tspan x="0" y="0">10g</tspan></text>
    <text id="_45g" data-name="45g" transform="translate(66.977 60.139)" fill="#f4f8f2" font-size="10" font-family="Arial-BoldMT, Arial" font-weight="700"><tspan x="0" y="0">45g</tspan></text>
  </g>
</svg>
