<svg xmlns="http://www.w3.org/2000/svg" width="121.86" height="131.64" viewBox="0 0 121.86 131.64">
  <g id="Layer_2" data-name="Layer 2" transform="translate(0.01)">
    <g id="Layer_1" data-name="Layer 1">
      <path id="Path_231" data-name="Path 231" d="M60.28,0A14.67,14.67,0,1,0,74.94,14.663,14.67,14.67,0,0,0,60.28,0Zm3.35,7.31a1,1,0,0,1,1-1h.3a1,1,0,0,1,1,1V12.2a1,1,0,0,1-1,1h-.3a1,1,0,0,1-1-1Zm-9.51,0a1,1,0,0,1,1-1h.3a1,1,0,0,1,1,1V12.2a1,1,0,0,1-1,1h-.3a1,1,0,0,1-1-1ZM60,24.43s-7.28.22-8.47-8.9L69,15.64a8.89,8.89,0,0,1-9,8.79Z" fill="#f5846a"/>
      <path id="Path_232" data-name="Path 232" d="M14.66,27.69A14.67,14.67,0,1,0,29.33,42.36,14.67,14.67,0,0,0,14.66,27.69ZM18,35a1,1,0,0,1,1-1h.3a1,1,0,0,1,1,1v4.9a1,1,0,0,1-1,1H19a1,1,0,0,1-1-1ZM8.51,35a1,1,0,0,1,1-1h.3a1,1,0,0,1,1,1v4.9a1,1,0,0,1-1,1h-.3a1,1,0,0,1-1-1Zm5.88,17.13s-7.28.21-8.47-8.91l17.48.11a8.9,8.9,0,0,1-9.01,8.8Z" fill="#f5846a"/>
      <path id="Path_233" data-name="Path 233" d="M16,76.24A14.66,14.66,0,1,0,30.63,90.9,14.66,14.66,0,0,0,16,76.24Zm3.35,7.31a1,1,0,0,1,1-1h.3a1,1,0,0,1,1,1v4.89a1,1,0,0,1-1,1h-.3a1,1,0,0,1-1-1Zm-9.51,0a1,1,0,0,1,1-1h.3a1,1,0,0,1,1,1v4.89a1,1,0,0,1-1,1h-.3a1,1,0,0,1-1-1Zm5.88,17.12s-7.27.22-8.47-8.91l17.49.11a8.9,8.9,0,0,1-9.05,8.8Z" fill="#f5846a"/>
      <path id="Path_234" data-name="Path 234" d="M60.6,102.3a14.66,14.66,0,1,0,10.387,4.3A14.67,14.67,0,0,0,60.6,102.3Zm3.4,7.31a1,1,0,0,1,1-1h.31a1,1,0,0,1,1,1v4.89a1,1,0,0,1-1,1H65a1,1,0,0,1-1-1Zm-9.51,0a1,1,0,0,1,1-1h.3a1,1,0,0,1,1,1v4.89a1,1,0,0,1-1,1h-.3a1,1,0,0,1-1-1Zm5.89,17.12s-7.28.22-8.47-8.9l17.48.11a8.89,8.89,0,0,1-9.06,8.79Z" fill="#f5846a"/>
      <path id="Path_235" data-name="Path 235" d="M106.21,75.91a14.67,14.67,0,1,0,14.67,14.66,14.67,14.67,0,0,0-14.67-14.66Zm3.35,7.31a1,1,0,0,1,1-1h.31a1,1,0,0,1,1,1v4.89a1,1,0,0,1-1,1h-.31a1,1,0,0,1-1-1Zm-9.51,0a1,1,0,0,1,1-1h.31a1,1,0,0,1,1,1v4.89a1,1,0,0,1-1,1h-.31a1,1,0,0,1-1-1Zm5.89,17.12s-7.28.22-8.47-8.9l17.48.11a8.89,8.89,0,0,1-9.01,8.79Z" fill="#f5846a"/>
      <path id="Path_236" data-name="Path 236" d="M25.74,29.22A50.48,50.48,0,0,1,43.43,18.13a17,17,0,0,1-.3-2.59A52.86,52.86,0,0,0,23.55,27.65a17.09,17.09,0,0,1,2.19,1.57Z" fill="#f5846a"/>
      <path id="Path_237" data-name="Path 237" d="M10.31,65.51a50.56,50.56,0,0,1,.42-6.43,16.9,16.9,0,0,1-2.64-.84,52.44,52.44,0,0,0,.43,17.18,17.61,17.61,0,0,1,2.59-1,50.19,50.19,0,0,1-.8-8.91Z" fill="#f5846a"/>
      <path id="Path_238" data-name="Path 238" d="M43.87,113.05a50.31,50.31,0,0,1-16.26-9.53,16.72,16.72,0,0,1-2.08,1.67,52.73,52.73,0,0,0,17.95,10.4,16.2,16.2,0,0,1,.39-2.54Z" fill="#f5846a"/>
      <path id="Path_239" data-name="Path 239" d="M77.17,17.83A50.3,50.3,0,0,1,96.1,29.56,16.81,16.81,0,0,1,98,28.19,52.89,52.89,0,0,0,77.43,15.41,17.561,17.561,0,0,1,77.17,17.83Z" fill="#f5846a"/>
      <path id="Path_240" data-name="Path 240" d="M94.41,103.06a50.27,50.27,0,0,1-17.06,10.07,17.091,17.091,0,0,1,.37,2.38,52.81,52.81,0,0,0,18.46-11,19.051,19.051,0,0,1-1.77-1.45Z" fill="#f5846a"/>
      <path id="Path_241" data-name="Path 241" d="M112.94,58.87a16.831,16.831,0,0,1-2.13.62,52,52,0,0,1,.37,6,49.75,49.75,0,0,1-.72,8.42,17.92,17.92,0,0,1,2.11.68,52.55,52.55,0,0,0,.8-9.1,53.92,53.92,0,0,0-.43-6.62Z" fill="#f5846a"/>
      <path id="Path_242" data-name="Path 242" d="M107.19,28a14.67,14.67,0,1,0,14.66,14.663A14.67,14.67,0,0,0,107.19,28Zm3.35,7.31a1,1,0,0,1,1-1h.3a1,1,0,0,1,1,1V40.2a1,1,0,0,1-1,1h-.3a1,1,0,0,1-1-1Zm-9.51,0a1,1,0,0,1,1-1h.3a1,1,0,0,1,1,1V40.2a1,1,0,0,1-1,1H102a1,1,0,0,1-1-1Zm5.88,17.12s-7.27.22-8.47-8.9l17.49.11a8.89,8.89,0,0,1-9.02,8.81Z" fill="#f5846a"/>
      <rect id="Rectangle_752" data-name="Rectangle 752" width="2.11" height="6.59" rx="1" transform="translate(54.59 57.26)" fill="#f5be17"/>
      <path id="Path_243" data-name="Path 243" d="M59.9,67.51c.46.36,1.06-.11,1.2-.35s-.28-.53-.28-.53l-.46-.21L60,65.94v-.41l.45-.4h.63a3.09,3.09,0,0,0,.24-1c0-.6-.58-.13-1.51,0s-.83,1.1-1,1.94S59.44,67.14,59.9,67.51Z" fill="#f5be17"/>
      <rect id="Rectangle_753" data-name="Rectangle 753" width="2.11" height="6.59" rx="1" transform="translate(64.24 57.26)" fill="#f5be17"/>
      <path id="Path_244" data-name="Path 244" d="M61,77.34c5.43-.49,5.8-6.34,5.8-6.34l-12.26.73A6.55,6.55,0,0,0,61,77.34Z" fill="#f5be17"/>
      <path id="Path_245" data-name="Path 245" d="M60.32,38.85A27,27,0,0,0,44.81,88l.2-.18s2.36-1.95,9-3A17.79,17.79,0,0,0,60,87a14.66,14.66,0,0,0,7.62-1.87s7,.27,9.72,1.82v.06A27,27,0,0,0,60.32,38.85Zm5.42,45.7a15.63,15.63,0,0,1-4.56,1.14s-1.92.16-5.67-1.38V80a7,7,0,0,0,4.65,2,8.65,8.65,0,0,0,5.58-1.63Zm7.77-23.62c0,2.85-1.5,3.59-1.5,3.59v5.74a5.78,5.78,0,0,1-1.26,3.3C68.67,77.26,64.11,80,64.11,80c-3.14,2-6.64.08-6.64.08-1.43-.41-5.34-5-6.23-5.82a8.6,8.6,0,0,1-1.75-3.54c-.12-.62-.12-6-.12-6-.82.32-1.27-1.59-1.27-1.59A6.8,6.8,0,0,1,48,59c.25-1.35,2-1.31,2-1.31V54.31c-.13-.93-1.39-1.75-1.39-1.75a1.33,1.33,0,0,1,.29-2.36,3.64,3.64,0,0,0,2.6-.77c2.65-3.46,5-3.51,5-3.51,7.13-.81,9,1.39,9,1.39a4.92,4.92,0,0,1,3.3,4.8c2.48-.73,2.81,2.28,2.81,2.28l.2,3.55c1.91.3,1.7,2.99,1.7,2.99Z" fill="#f5be17"/>
      <rect id="Rectangle_754" data-name="Rectangle 754" width="2.28" height="4.95" rx="1" transform="translate(59.3 31.51)" fill="#f5be17"/>
      <rect id="Rectangle_755" data-name="Rectangle 755" width="2.28" height="4.95" rx="1" transform="translate(28.41 53.368) rotate(-71.44)" fill="#f5be17"/>
      <rect id="Rectangle_756" data-name="Rectangle 756" width="2.288" height="4.967" rx="1.003" transform="translate(32.321 84.877) rotate(-119.887)" fill="#f5be17"/>
      <rect id="Rectangle_757" data-name="Rectangle 757" width="2.28" height="4.95" rx="1" transform="translate(61.67 99.78) rotate(180)" fill="#f5be17"/>
      <rect id="Rectangle_758" data-name="Rectangle 758" width="2.28" height="4.95" rx="1" transform="translate(90.507 83.08) rotate(115.03)" fill="#f5be17"/>
      <rect id="Rectangle_759" data-name="Rectangle 759" width="2.28" height="4.95" rx="1" transform="matrix(0.46, 0.888, -0.888, 0.46, 91.711, 50.55)" fill="#f5be17"/>
    </g>
  </g>
</svg>
