<svg xmlns="http://www.w3.org/2000/svg" width="76.838" height="62.324" viewBox="0 0 76.838 62.324">
  <defs>
    <style>
      .cls-1 {
        fill: #fff;
        fill-rule: evenodd;
      }
    </style>
  </defs>
  <g id="twitter" transform="translate(0 -7.295)">
    <path id="Path_225" data-name="Path 225" class="cls-1" d="M62.332,64.324c29.028,0,44.822-23.905,44.822-44.822V17.368a34.7,34.7,0,0,0,7.684-8.111,35.437,35.437,0,0,1-8.964,2.561,16.608,16.608,0,0,0,6.83-8.538,39.154,39.154,0,0,1-9.818,3.842A15.245,15.245,0,0,0,91.359,2,16.038,16.038,0,0,0,75.565,17.794a8.322,8.322,0,0,0,.427,3.415c-13.233-.854-24.759-6.83-32.443-16.648a16.348,16.348,0,0,0-2.134,8.111,16.96,16.96,0,0,0,6.83,13.233,14.391,14.391,0,0,1-7.257-2.134h0A15.6,15.6,0,0,0,53.794,39.138a13.16,13.16,0,0,1-4.269.427,7.264,7.264,0,0,1-2.988-.427c2.134,6.4,7.684,10.672,14.941,11.1a32.23,32.23,0,0,1-19.636,6.83A11.819,11.819,0,0,1,38,56.64a40.292,40.292,0,0,0,24.332,7.684" transform="translate(-38 5.295)"/>
  </g>
</svg>
