<svg id="Page-1" xmlns="http://www.w3.org/2000/svg" width="200.418" height="131.309" viewBox="0 0 200.418 131.309">
  <defs>
    <style>
      .cls-1 {
        fill: #ebf1f8;
      }

      .cls-1, .cls-2, .cls-3, .cls-4, .cls-5 {
        fill-rule: evenodd;
      }

      .cls-2 {
        fill: #047ab1;
      }

      .cls-3 {
        fill: #fff;
      }

      .cls-4 {
        fill: #d42d06;
      }

      .cls-5 {
        fill: #67b637;
      }
    </style>
  </defs>
  <g id="jcb" transform="translate(0 0)">
    <g id="card" transform="translate(0 0)">
      <path id="shape" class="cls-1" d="M183.694,131.308H16.725A16.586,16.586,0,0,1,0,114.86V16.448A16.586,16.586,0,0,1,16.725,0H183.694a16.586,16.586,0,0,1,16.725,16.448v98.48A16.586,16.586,0,0,1,183.694,131.308Z" transform="translate(0 0)"/>
      <path id="shape-2" data-name="shape" class="cls-2" d="M5,105.663H32.644c6.289,0,13.822-7.74,13.822-13.822V2H18.822C12.533,2,5,9.74,5,22.733Z" transform="translate(29.555 11.822)"/>
      <path id="shape-3" data-name="shape" class="cls-3" d="M20.7,42.522A56.69,56.69,0,0,1,5,40.307l.011-7.6A26.953,26.953,0,0,0,18.14,36.717c5.321,0,8.293-3.732,8.293-8.846V7H39.564V27.871C39.564,36.026,35.279,42.522,20.7,42.522Z" transform="translate(29.546 41.377)"/>
      <path id="shape-4" data-name="shape" class="cls-4" d="M12,105.663H39.644c6.289,0,13.822-7.74,13.822-13.822V2H25.822C19.533,2,12,9.74,12,22.733Z" transform="translate(70.932 11.822)"/>
      <path id="shape-5" data-name="shape" class="cls-3" d="M12,12.673C16.008,8.8,22.919,6.384,34.115,6.937A63.666,63.666,0,0,1,46.555,9.01v7.671A28.128,28.128,0,0,0,34.6,12.742c-8.5-.76-13.684,4.008-13.684,12.371S26.1,38.243,34.6,37.552a28.543,28.543,0,0,0,11.956-4.008v7.6a61.086,61.086,0,0,1-12.44,2.142c-11.2.553-18.107-1.866-22.115-5.736Z" transform="translate(70.932 40.541)"/>
      <path id="shape-6" data-name="shape" class="cls-5" d="M19,105.663H46.644c6.289,0,13.822-7.74,13.822-13.822V2H32.822C26.533,2,19,9.74,19,22.733Z" transform="translate(112.309 11.822)"/>
      <path id="shape-7" data-name="shape" class="cls-3" d="M53.555,32.57c0,5.529-4.285,8.984-10.021,8.984H19V7H41.322l1.59.069c5.045.276,8.777,3.248,8.777,8.362A8.229,8.229,0,0,1,44.5,23.724v.207c5.114.346,9.053,3.594,9.053,8.639ZM35.932,12.46a6.289,6.289,0,0,0-.9-.069H26.74V21.1h9.192a4.278,4.278,0,0,0,3.179-4.354A4.141,4.141,0,0,0,35.932,12.46Zm1.037,14.1a5.943,5.943,0,0,0-1.106-.069H26.74v9.468h9.122l1.106-.138a4.563,4.563,0,0,0,3.179-4.63,4.545,4.545,0,0,0-3.179-4.63Z" transform="translate(112.309 41.377)"/>
    </g>
  </g>
</svg>
