<svg xmlns="http://www.w3.org/2000/svg" width="312.324" height="111.661" viewBox="0 0 312.324 111.661">
  <g id="logo" transform="translate(0 4)">
    <path id="Path_200" data-name="Path 200" d="M88.212,15.294q0,9.692-4.945,15.9A16.236,16.236,0,0,1,69.858,37.4q-8.464,0-11.252-4.182a11.624,11.624,0,0,1-1.726-6.472,43.9,43.9,0,0,1,.664-7.6l8.5-48.061H77.326L75.334-17.831H91.863L90.2-8.471H77.193a30.432,30.432,0,0,1,7.866,9.825A29.7,29.7,0,0,1,88.212,15.294ZM71.55,27.907q2.058,0,3.518-3.319a21.932,21.932,0,0,0,1.46-8.729,55.9,55.9,0,0,0-1.1-10.92,36.337,36.337,0,0,0-2.622-8.63L68.829,19.078a24.392,24.392,0,0,0-.4,4.049Q68.431,27.907,71.55,27.907ZM107.8,5.6a5.509,5.509,0,0,0,2.722-.664l-.332,7.5a10.817,10.817,0,0,1-7.1,2.589q-6.041,0-7.833-2.788a7.181,7.181,0,0,1-1.195-3.95,22.635,22.635,0,0,1,.266-3.684L98.3-17.831h11.285L105.87,3.08a4.47,4.47,0,0,0-.066.73Q105.8,5.6,107.8,5.6ZM99.63-28.651q0-4.248,1.892-6.207t5.875-1.958q5.576,0,5.576,4.912,0,4.182-1.892,6.107t-5.941,1.925Q99.63-23.871,99.63-28.651Zm29.142,43.68q-7.7,0-11.086-3.452a9.15,9.15,0,0,1-2.523-6.771,18.223,18.223,0,0,1,.266-2.987l4.514-25.69,12.148-5.045-1.925,11.086h18.322l-1.66,9.36H128.507l-1.328,7.5a11.081,11.081,0,0,0-.266,2.257q0,4.182,3.983,4.182a4.371,4.371,0,0,0,3.551-1.792,10.508,10.508,0,0,0,1.958-4.78h11.019Q144.637,15.029,128.772,15.029Zm71.295-.929H166.743l8.431-47.8H208.5L206.638-23.34H185.263l-1.527,8.962h17.658L199.536-4.023H181.878L180.55,3.744h21.375ZM239.033,3.876A1.54,1.54,0,0,0,240.792,5.6a6.013,6.013,0,0,0,2.954-.664l-.332,7.5a11.075,11.075,0,0,1-7.169,2.589q-7.3,0-8.1-5.311a10.794,10.794,0,0,1-9.758,5.311q-10.887,0-10.887-9.36a20.85,20.85,0,0,1,.332-3.518l1.394-7.767a16.521,16.521,0,0,1,4.879-9.526,14.033,14.033,0,0,1,9.957-3.551q6.14,0,8.331,2.854l.332-1.991h10.09L239.1,3.08A4.838,4.838,0,0,0,239.033,3.876ZM219.384.69a8.05,8.05,0,0,0-.133,1.66,3.031,3.031,0,0,0,1,2.091A4.535,4.535,0,0,0,223.6,5.47a5.394,5.394,0,0,0,4.082-1.859l1.991-11.152q-.73-1.66-3.452-1.66-5.111,0-5.974,4.912Zm42.684,14.339q-7.7,0-11.086-3.452a9.15,9.15,0,0,1-2.523-6.771,18.225,18.225,0,0,1,.266-2.987l4.514-25.69,12.148-5.045-1.925,11.086-1.66,9.36-1.328,7.5a11.079,11.079,0,0,0-.266,2.257q0,4.182,3.983,4.182a4.371,4.371,0,0,0,3.551-1.792A10.507,10.507,0,0,0,269.7-1.1h11.019Q277.933,15.029,262.068,15.029Z" transform="translate(20.522 70.262)" fill="#fff"/>
    <g id="Group_2" data-name="Group 2" transform="translate(8.236 0)">
      <line id="Line_1" data-name="Line 1" y2="20.111" transform="translate(37.556)" fill="none" stroke="#fff" stroke-linecap="round" stroke-width="8"/>
      <line id="Line_2" data-name="Line 2" x1="16.073" y2="15.642" transform="translate(59.901 4.469)" fill="none" stroke="#fff" stroke-linecap="round" stroke-width="8"/>
      <line id="Line_3" data-name="Line 3" x2="15.21" y2="15.642" transform="translate(0 4.469)" fill="none" stroke="#fff" stroke-linecap="round" stroke-width="8"/>
    </g>
    <path id="Path_201" data-name="Path 201" d="M34.236,13.235H.912l8.431-47.8H42.666L40.808-24.2H19.433l-1.527,8.962H35.564L33.7-4.887H16.047L14.72,2.88H36.095Zm40.891,0H40.144L42,2.88h.066L67.759-24.2H46.716L48.574-34.56h35.05L81.766-24.2,56.076,2.88h20.91Z" transform="translate(-0.912 71.126)" fill="#fff"/>
    <path id="Subtraction_1" data-name="Subtraction 1" d="M10.285,15.939a8.393,8.393,0,0,1-3.048-.561,18.264,18.264,0,0,1-5.477-3.064c2.043-.373,6.855-1.342,9.452-1.958,3-.711,9.586-4.85,9.922-5.063l-.016.007A64.065,64.065,0,0,1,7.555,9.259a54.99,54.99,0,0,1-7.46.692,1.877,1.877,0,0,1-.083-.8A27.588,27.588,0,0,1,3.854,4.69C6.041,2.637,9.475.159,13.413.013,13.635,0,13.852,0,14.06,0c2.54,0,3.657.629,4.414,1.244.144.117.276.234.4.347a2.677,2.677,0,0,0,1.981.9,10.564,10.564,0,0,0,3.643-.98A6.393,6.393,0,0,1,26.687.933a.834.834,0,0,1,.84.406c.7,1.492-3.554,6.66-3.6,6.712a31.506,31.506,0,0,1-4.223,3.944C17.384,13.794,13.865,15.938,10.285,15.939Z" transform="matrix(0.996, -0.087, 0.087, 0.996, 283.435, 44.406)" fill="#fff"/>
  </g>
</svg>
