<svg xmlns="http://www.w3.org/2000/svg" width="15.1" height="15.527" viewBox="0 0 15.1 15.527">
  <path id="Path_63" data-name="Path 63" d="M17.634,8.232V1.25H7.213V14.276h4.793a.625.625,0,1,1,0,1.25H6.588a.627.627,0,0,1-.625-.625V.625A.627.627,0,0,1,6.588,0H18.259a.627.627,0,0,1,.625.625V8.232a.625.625,0,1,1-1.25,0Zm3.22,1.521a.627.627,0,0,0-.886.052L16.54,13.62,14.82,11.963a.626.626,0,0,0-.865.907l2.188,2.1a.614.614,0,0,0,.438.177H16.6a.625.625,0,0,0,.438-.208L20.9,10.65A.629.629,0,0,0,20.854,9.754ZM15.341,3.647H9.714a.625.625,0,1,0,0,1.25h5.627a.625.625,0,1,0,0-1.25Zm.625,4.064a.627.627,0,0,0-.625-.625H9.714a.625.625,0,1,0,0,1.25h5.627A.627.627,0,0,0,15.967,7.711ZM9.714,10.421a.625.625,0,0,0,0,1.25h1.667a.625.625,0,0,0,0-1.25Z" transform="translate(-5.963)" fill="gray"/>
</svg>
