<svg xmlns="http://www.w3.org/2000/svg" width="19.108" height="18.73" viewBox="0 0 19.108 18.73">
  <path id="Home" d="M92.385,85.073l-8.9-7.8a.654.654,0,0,0-.863,0l-8.9,7.8a.654.654,0,0,0,.863.984l.689-.6v9.733a.654.654,0,0,0,.654.654h14.25a.654.654,0,0,0,.654-.654V85.453l.689.6a.654.654,0,0,0,.863-.984ZM81.543,94.532V89.141h3.022v5.391H81.543Zm7.982-10.221V94.532H85.874V88.487a.654.654,0,0,0-.654-.654H80.888a.654.654,0,0,0-.654.654v6.045H76.583V84.311s0,0,6.47-5.676l6.471,5.671S89.524,84.31,89.524,84.311Z" transform="translate(-73.499 -77.11)" fill="gray"/>
</svg>
