<svg xmlns="http://www.w3.org/2000/svg" width="18.046" height="18.046" viewBox="0 0 18.046 18.046">
  <g id="settings" transform="translate(0.75 0.75)">
    <circle id="Ellipse_52" data-name="Ellipse 52" cx="2.5" cy="2.5" r="2.5" transform="translate(5.609 6.178)" stroke-width="1.5" stroke="#30a64a" stroke-linecap="round" stroke-linejoin="round" fill="none"/>
    <path id="Path_199" data-name="Path 199" d="M14.839,11.529a1.241,1.241,0,0,0,.248,1.369l.045.045A1.505,1.505,0,1,1,13,15.072l-.045-.045a1.251,1.251,0,0,0-2.121.887v.128a1.5,1.5,0,1,1-3.008,0v-.068a1.241,1.241,0,0,0-.812-1.136,1.241,1.241,0,0,0-1.369.248l-.045.045A1.505,1.505,0,1,1,3.474,13l.045-.045a1.251,1.251,0,0,0-.887-2.121H2.5a1.5,1.5,0,1,1,0-3.008h.068a1.241,1.241,0,0,0,1.136-.812,1.241,1.241,0,0,0-.248-1.369L3.414,5.6A1.505,1.505,0,1,1,5.543,3.474l.045.045a1.241,1.241,0,0,0,1.369.248h.06a1.241,1.241,0,0,0,.752-1.136V2.5a1.5,1.5,0,0,1,3.008,0v.068a1.251,1.251,0,0,0,2.121.887l.045-.045a1.505,1.505,0,1,1,2.128,2.128l-.045.045a1.241,1.241,0,0,0-.248,1.369v.06a1.241,1.241,0,0,0,1.136.752h.128a1.5,1.5,0,1,1,0,3.008h-.068A1.241,1.241,0,0,0,14.839,11.529Z" transform="translate(-1 -1)" fill="none" stroke="#30a64a" stroke-linecap="round" stroke-linejoin="round" stroke-width="1.5"/>
  </g>
</svg>
